<svg xmlns="http://www.w3.org/2000/svg" width="960" height="540" viewBox="0 0 960 540" role="img" aria-labelledby="drawing-title drawing-description" lang="en"><title id="drawing-title">ECS Game Engine Runtime</title><desc id="drawing-description">ECS Game Engine Runtime</desc><rect width="960" height="540" fill="#F6F0EA" /><text x="480" y="40" fill="#191514" font-size="24" font-family="Charter, Georgia, serif" text-anchor="middle">ECS Game Engine Runtime</text><text x="32" y="128" fill="#85776F" font-size="11" font-family="'JetBrains Mono', monospace" letter-spacing="0.08em">SURFACE LAYER</text><line x1="120" y1="206" x2="904" y2="206" stroke="#E9DED4" stroke-width="1" /><text x="32" y="284" fill="#85776F" font-size="11" font-family="'JetBrains Mono', monospace" letter-spacing="0.08em">RUNTIME LAYER</text><line x1="120" y1="362" x2="904" y2="362" stroke="#E9DED4" stroke-width="1" /><text x="32" y="440" fill="#85776F" font-size="11" font-family="'JetBrains Mono', monospace" letter-spacing="0.08em">DATA LAYER</text><path class="arch-edge arch-edge--secondary" d="M 256 164 L 256 248" fill="none" stroke="#5A4A43" stroke-width="1.2" stroke-linecap="round" stroke-linejoin="round" /><path d="M 252 240 L 256 248 L 260 240" fill="none" stroke="#5A4A43" stroke-width="1.2" stroke-linecap="round" /><path class="arch-edge arch-edge--secondary" d="M 480 164 L 480 248" fill="none" stroke="#5A4A43" stroke-width="1.2" stroke-linecap="round" stroke-linejoin="round" /><path d="M 476 240 L 480 248 L 484 240" fill="none" stroke="#5A4A43" stroke-width="1.2" stroke-linecap="round" /><path class="arch-edge arch-edge--primary" d="M 344 284 L 392 284" fill="none" stroke="#B83D2E" stroke-width="1.4" stroke-linecap="round" stroke-linejoin="round" /><path d="M 384 280 L 392 284 L 384 288" fill="none" stroke="#B83D2E" stroke-width="1.4" stroke-linecap="round" /><path class="arch-edge arch-edge--primary" d="M 568 284 L 616 284" fill="none" stroke="#B83D2E" stroke-width="1.4" stroke-linecap="round" stroke-linejoin="round" /><path d="M 608 280 L 616 284 L 608 288" fill="none" stroke="#B83D2E" stroke-width="1.4" stroke-linecap="round" /><path class="arch-edge arch-edge--secondary" d="M 480 320 L 480 352 Q 480 360 472 360 L 436 360 Q 428 360 428 368 L 428 404" fill="none" stroke="#5A4A43" stroke-width="1.2" stroke-linecap="round" stroke-linejoin="round" /><path d="M 424 396 L 428 404 L 432 396" fill="none" stroke="#5A4A43" stroke-width="1.2" stroke-linecap="round" /><path class="arch-edge arch-edge--secondary" d="M 652 320 L 652 368 Q 652 376 644 376 L 540 376 Q 532 376 532 384 L 532 404" fill="none" stroke="#5A4A43" stroke-width="1.2" stroke-linecap="round" stroke-linejoin="round" /><path d="M 528 396 L 532 404 L 536 396" fill="none" stroke="#5A4A43" stroke-width="1.2" stroke-linecap="round" /><rect class="arch-edge-label-mask" x="548" y="364" width="88" height="24" rx="3" fill="#F6F0EA" stroke="none" /><text x="592" y="380" fill="#85776F" font-size="8" font-family="'JetBrains Mono', monospace" text-anchor="middle" class="arch-edge-label">READ/WRITE</text><path class="arch-edge arch-edge--async" d="M 756 320 L 756 376 Q 756 384 748 384 L 712 384 Q 704 384 704 392 L 704 404" fill="none" stroke="#85776F" stroke-width="1" stroke-dasharray="5 4" stroke-linecap="round" stroke-linejoin="round" /><path d="M 700 396 L 704 404 L 708 396" fill="none" stroke="#85776F" stroke-width="1" stroke-linecap="round" /><g id="input" data-reading-order="0"><rect x="168" y="92" width="176" height="72" rx="5" fill="#FBF7F3" stroke="#85776F" stroke-width="1" /><text x="188" y="112" fill="#85776F" font-size="7" font-family="'JetBrains Mono', monospace" letter-spacing="0.15em">EXTERNAL</text><text x="256" y="132" fill="#191514" font-size="12" font-family="Charter, Georgia, serif" text-anchor="middle" font-weight="500">Input Router</text><text x="256" y="148" fill="#5A4A43" font-size="9" font-family="'JetBrains Mono', monospace" text-anchor="middle">keyboard · gamepad</text><g aria-hidden="true"><path d="M 314 106 h 9 v 9 h -9 z" fill="none" stroke="#85776F" stroke-width="1" stroke-linecap="round" stroke-linejoin="round" /><path d="M 319 111 l 7 -5 M 322 106 h 4 v 4" fill="none" stroke="#85776F" stroke-width="1" stroke-linecap="round" stroke-linejoin="round" /></g></g><g id="scene" data-reading-order="1"><rect x="392" y="92" width="176" height="72" rx="5" fill="#FBF7F3" stroke="#85776F" stroke-width="1" /><text x="412" y="112" fill="#85776F" font-size="7" font-family="'JetBrains Mono', monospace" letter-spacing="0.15em">EXTERNAL</text><text x="480" y="132" fill="#191514" font-size="12" font-family="Charter, Georgia, serif" text-anchor="middle" font-weight="500">Scene Loader</text><text x="480" y="148" fill="#5A4A43" font-size="9" font-family="'JetBrains Mono', monospace" text-anchor="middle">prefabs · assets</text><g aria-hidden="true"><path d="M 538 106 h 9 v 9 h -9 z" fill="none" stroke="#85776F" stroke-width="1" stroke-linecap="round" stroke-linejoin="round" /><path d="M 543 111 l 7 -5 M 546 106 h 4 v 4" fill="none" stroke="#85776F" stroke-width="1" stroke-linecap="round" stroke-linejoin="round" /></g></g><g id="scheduler" data-reading-order="2"><rect x="168" y="248" width="176" height="72" rx="5" fill="#FBF7F3" stroke="#191514" stroke-width="1" /><text x="188" y="268" fill="#85776F" font-size="7" font-family="'JetBrains Mono', monospace" letter-spacing="0.15em">SERVICE</text><text x="256" y="288" fill="#191514" font-size="12" font-family="Charter, Georgia, serif" text-anchor="middle" font-weight="500">Frame Scheduler</text><text x="256" y="304" fill="#5A4A43" font-size="9" font-family="'JetBrains Mono', monospace" text-anchor="middle">fixed tick</text></g><g id="world" data-reading-order="3"><rect x="392" y="248" width="176" height="72" rx="5" fill="#F7E6E1" stroke="#B83D2E" stroke-width="1" /><text x="412" y="268" fill="#B83D2E" font-size="7" font-family="'JetBrains Mono', monospace" letter-spacing="0.15em">SERVICE</text><text x="480" y="288" fill="#191514" font-size="12" font-family="Charter, Georgia, serif" text-anchor="middle" font-weight="500">ECS World</text><text x="480" y="304" fill="#5A4A43" font-size="9" font-family="'JetBrains Mono', monospace" text-anchor="middle">entity orchestration</text></g><g id="systems" data-reading-order="4"><rect x="616" y="248" width="176" height="72" rx="5" fill="#FBF7F3" stroke="#191514" stroke-width="1" /><text x="636" y="268" fill="#85776F" font-size="7" font-family="'JetBrains Mono', monospace" letter-spacing="0.15em">SERVICE</text><text x="704" y="288" fill="#191514" font-size="12" font-family="Charter, Georgia, serif" text-anchor="middle" font-weight="500">System Pipeline</text><text x="704" y="304" fill="#5A4A43" font-size="9" font-family="'JetBrains Mono', monospace" text-anchor="middle">physics · AI · render</text></g><g id="components" data-reading-order="5"><rect x="392" y="404" width="176" height="72" rx="5" fill="#FBF7F3" stroke="#5A4A43" stroke-width="1" /><text x="412" y="424" fill="#85776F" font-size="7" font-family="'JetBrains Mono', monospace" letter-spacing="0.15em">STORE</text><text x="480" y="444" fill="#191514" font-size="12" font-family="Charter, Georgia, serif" text-anchor="middle" font-weight="500">Component Stores</text><text x="480" y="460" fill="#5A4A43" font-size="9" font-family="'JetBrains Mono', monospace" text-anchor="middle">dense arrays</text></g><g id="resources" data-reading-order="6"><rect x="616" y="404" width="176" height="72" rx="5" fill="#FBF7F3" stroke="#E9DED4" stroke-width="1" /><text x="636" y="424" fill="#85776F" font-size="7" font-family="'JetBrains Mono', monospace" letter-spacing="0.15em">CLOUD</text><text x="704" y="444" fill="#191514" font-size="12" font-family="Charter, Georgia, serif" text-anchor="middle" font-weight="500">Resource Cache</text><text x="704" y="460" fill="#5A4A43" font-size="9" font-family="'JetBrains Mono', monospace" text-anchor="middle">meshes · textures</text><g aria-hidden="true"><path d="M 762 427 c -3 -1 -2 -6 2 -6 c 2 -4 7 -2 7 1 c 5 -1 5 6 1 6 h -10" fill="none" stroke="#E9DED4" stroke-width="1" stroke-linecap="round" stroke-linejoin="round" /></g></g></svg>