<svg xmlns="http://www.w3.org/2000/svg" viewBox="0 0 960 540"><rect width="960" height="540" fill="#F6F0EA" /><text x="480" y="40" fill="#191514" font-size="24" font-family="Charter, Georgia, serif" text-anchor="middle">Agent Runtime</text><text x="32" y="151" fill="#85776F" font-size="11" font-family="'JetBrains Mono', monospace" letter-spacing="0.08em">SURFACE LAYER</text><line x1="70" y1="201" x2="920" y2="201" stroke="#E9DED4" stroke-width="1" /><text x="32" y="269" fill="#85776F" font-size="11" font-family="'JetBrains Mono', monospace" letter-spacing="0.08em">RUNTIME LAYER</text><line x1="70" y1="319" x2="920" y2="319" stroke="#E9DED4" stroke-width="1" /><text x="32" y="387" fill="#85776F" font-size="11" font-family="'JetBrains Mono', monospace" letter-spacing="0.08em">DATA LAYER</text><line x1="70" y1="437" x2="920" y2="437" stroke="#E9DED4" stroke-width="1" /><rect class="arch-group" x="234" y="95" width="596" height="224" rx="10" fill="#FBF7F3" fill-opacity="0.28" stroke="#E9DED4" stroke-width="1" stroke-dasharray="5 4" /><text x="248" y="111" fill="#85776F" font-size="8" font-family="'JetBrains Mono', monospace" letter-spacing="0.12em">CONTROL CORE</text><path class="arch-edge arch-edge--primary arch-edge--focus" d="M 432 183 L 432 205 L 332 205 L 332 237" fill="none" stroke="#B83D2E" stroke-width="1.8" /><path d="M 328 229 L 332 237 L 336 229" fill="none" stroke="#B83D2E" stroke-width="1.8" stroke-linecap="round" /><rect class="arch-edge-label-bg arch-edge-label-bg--primary" x="359" y="187" width="47" height="12" rx="2" fill="#F6F0EA" fill-opacity="1.0" /><text class="arch-edge-label arch-edge-label--primary" x="382" y="196" fill="#B83D2E" font-size="8" font-family="'JetBrains Mono', monospace" text-anchor="middle">route</text><path class="arch-edge arch-edge--primary arch-edge--focus" d="M 412 269 L 452 269" fill="none" stroke="#B83D2E" stroke-width="1.8" /><path d="M 444 265 L 452 269 L 444 273" fill="none" stroke="#B83D2E" stroke-width="1.8" stroke-linecap="round" /><rect class="arch-edge-label-bg arch-edge-label-bg--primary" x="411" y="251" width="42" height="12" rx="2" fill="#F6F0EA" fill-opacity="1.0" /><text class="arch-edge-label arch-edge-label--primary" x="432" y="260" fill="#B83D2E" font-size="8" font-family="'JetBrains Mono', monospace" text-anchor="middle">plan</text><path class="arch-edge arch-edge--secondary" d="M 612 269 L 652 269" fill="none" stroke="#5A4A43" stroke-width="1.2" /><path d="M 644 265 L 652 269 L 644 273" fill="none" stroke="#5A4A43" stroke-width="1.2" stroke-linecap="round" /><rect class="arch-edge-label-bg arch-edge-label-bg--secondary" x="598" y="251" width="68" height="12" rx="2" fill="#F6F0EA" fill-opacity="0.9" /><text class="arch-edge-label arch-edge-label--secondary" x="632" y="260" fill="#5A4A43" font-size="8" font-family="'JetBrains Mono', monospace" text-anchor="middle">tool use</text><path class="arch-edge arch-edge--secondary" d="M 732 301 L 732 323 L 548 323 L 548 355" fill="none" stroke="#5A4A43" stroke-width="1.2" /><path d="M 544 347 L 548 355 L 552 347" fill="none" stroke="#5A4A43" stroke-width="1.2" stroke-linecap="round" /><rect class="arch-edge-label-bg arch-edge-label-bg--secondary" x="606" y="305" width="68" height="12" rx="2" fill="#F6F0EA" fill-opacity="0.9" /><text class="arch-edge-label arch-edge-label--secondary" x="640" y="314" fill="#5A4A43" font-size="8" font-family="'JetBrains Mono', monospace" text-anchor="middle">retrieve</text><path class="arch-edge arch-edge--secondary" d="M 732 301 L 732 323 L 748 323 L 748 355" fill="none" stroke="#85776F" stroke-width="1.0" /><path d="M 744 347 L 748 355 L 752 347" fill="none" stroke="#85776F" stroke-width="1.0" stroke-linecap="round" /><rect class="arch-edge-label-bg arch-edge-label-bg--background" x="721" y="321" width="54" height="12" rx="2" fill="#F6F0EA" fill-opacity="0.72" /><text class="arch-edge-label arch-edge-label--background" x="748" y="330" fill="#85776F" font-size="7" font-family="'JetBrains Mono', monospace" text-anchor="middle">events</text><rect x="352" y="119" width="160" height="64" rx="6" fill="#FBF7F3" stroke="#85776F" stroke-width="1" /><text x="370" y="137" fill="#85776F" font-size="7" font-family="'JetBrains Mono', monospace" letter-spacing="0.15em">EXTERNAL</text><text x="432" y="157" fill="#191514" font-size="12" font-family="Charter, Georgia, serif" font-weight="600" text-anchor="middle">API Gateway</text><text x="432" y="173" fill="#5A4A43" font-size="9" font-family="'JetBrains Mono', monospace" text-anchor="middle">request ingress</text><rect x="252" y="237" width="160" height="64" rx="6" fill="#F7E6E1" stroke="#B83D2E" stroke-width="1" /><text x="270" y="255" fill="#B83D2E" font-size="7" font-family="'JetBrains Mono', monospace" letter-spacing="0.15em">SERVICE</text><text x="332" y="275" fill="#191514" font-size="12" font-family="Charter, Georgia, serif" font-weight="600" text-anchor="middle">Task Planner</text><text x="332" y="291" fill="#5A4A43" font-size="9" font-family="'JetBrains Mono', monospace" text-anchor="middle">coordination</text><rect x="452" y="237" width="160" height="64" rx="6" fill="#FBF7F3" stroke="#191514" stroke-width="1" /><text x="470" y="255" fill="#85776F" font-size="7" font-family="'JetBrains Mono', monospace" letter-spacing="0.15em">SERVICE</text><text x="532" y="275" fill="#191514" font-size="12" font-family="Charter, Georgia, serif" font-weight="600" text-anchor="middle">Model Runtime</text><text x="532" y="291" fill="#5A4A43" font-size="9" font-family="'JetBrains Mono', monospace" text-anchor="middle">execution core</text><rect x="652" y="237" width="160" height="64" rx="6" fill="#FBF7F3" stroke="#191514" stroke-width="1" /><text x="670" y="255" fill="#85776F" font-size="7" font-family="'JetBrains Mono', monospace" letter-spacing="0.15em">SERVICE</text><text x="732" y="275" fill="#191514" font-size="12" font-family="Charter, Georgia, serif" font-weight="600" text-anchor="middle">Tool Runtime</text><text x="732" y="291" fill="#5A4A43" font-size="9" font-family="'JetBrains Mono', monospace" text-anchor="middle">tool execution</text><rect x="468" y="355" width="160" height="64" rx="6" fill="#FBF7F3" stroke="#5A4A43" stroke-width="1" /><text x="486" y="373" fill="#85776F" font-size="7" font-family="'JetBrains Mono', monospace" letter-spacing="0.15em">STORE</text><text x="548" y="393" fill="#191514" font-size="12" font-family="Charter, Georgia, serif" font-weight="600" text-anchor="middle">Memory Store</text><text x="548" y="409" fill="#5A4A43" font-size="9" font-family="'JetBrains Mono', monospace" text-anchor="middle">retrieval state</text><rect x="668" y="355" width="160" height="64" rx="6" fill="#FBF7F3" stroke="#E9DED4" stroke-width="1" /><text x="686" y="373" fill="#85776F" font-size="7" font-family="'JetBrains Mono', monospace" letter-spacing="0.15em">CLOUD</text><text x="748" y="393" fill="#191514" font-size="12" font-family="Charter, Georgia, serif" font-weight="600" text-anchor="middle">Observability</text><text x="748" y="409" fill="#5A4A43" font-size="9" font-family="'JetBrains Mono', monospace" text-anchor="middle">logs · traces</text><rect class="arch-legend" x="299" y="482" width="362" height="42" rx="8" fill="#FBF7F3" stroke="#E9DED4" stroke-width="1" /><text x="313" y="498" fill="#85776F" font-size="8" font-family="'JetBrains Mono', monospace" letter-spacing="0.12em">LEGEND</text><line x1="383" y1="507" x2="403" y2="507" stroke="#B83D2E" stroke-width="1.6" /><text x="411" y="510" fill="#191514" font-size="9" font-family="'JetBrains Mono', monospace">Control</text><line x1="488" y1="507" x2="508" y2="507" stroke="#85776F" stroke-width="1.6" /><text x="516" y="510" fill="#191514" font-size="9" font-family="'JetBrains Mono', monospace">Read</text><line x1="572" y1="507" x2="592" y2="507" stroke="#5A4A43" stroke-width="1.6" /><text x="600" y="510" fill="#191514" font-size="9" font-family="'JetBrains Mono', monospace">Write</text></svg>