<svg xmlns="http://www.w3.org/2000/svg" viewBox="0 0 960 540"><rect width="960" height="540" fill="#F6F0EA" /><text x="480" y="40" fill="#191514" font-size="24" font-family="Charter, Georgia, serif" text-anchor="middle">ECS Game Engine Runtime</text><text x="32" y="128" fill="#85776F" font-size="11" font-family="'JetBrains Mono', monospace" letter-spacing="0.08em">SURFACE LAYER</text><line x1="70" y1="178" x2="920" y2="178" stroke="#E9DED4" stroke-width="1" /><text x="32" y="246" fill="#85776F" font-size="11" font-family="'JetBrains Mono', monospace" letter-spacing="0.08em">RUNTIME LAYER</text><line x1="70" y1="296" x2="920" y2="296" stroke="#E9DED4" stroke-width="1" /><text x="32" y="364" fill="#85776F" font-size="11" font-family="'JetBrains Mono', monospace" letter-spacing="0.08em">DATA LAYER</text><line x1="70" y1="414" x2="920" y2="414" stroke="#E9DED4" stroke-width="1" /><path d="M 380 160 L 380 187 L 180 187 L 180 214" fill="none" stroke="#5A4A43" stroke-width="1.4" /><path d="M 176 206 L 180 214 L 184 206" fill="none" stroke="#5A4A43" stroke-width="1.4" stroke-linecap="round" /><rect x="256" y="169" width="48" height="12" rx="2" fill="#F6F0EA" /><text x="280" y="178" fill="#5A4A43" font-size="8" font-family="'JetBrains Mono', monospace" text-anchor="middle">events</text><path d="M 580 160 L 580 246 L 480 246 L 480 332" fill="none" stroke="#5A4A43" stroke-width="1.4" /><path d="M 476 324 L 480 332 L 484 324" fill="none" stroke="#5A4A43" stroke-width="1.4" stroke-linecap="round" /><rect x="506" y="228" width="48" height="12" rx="2" fill="#F6F0EA" /><text x="530" y="237" fill="#5A4A43" font-size="8" font-family="'JetBrains Mono', monospace" text-anchor="middle">stream</text><path d="M 580 160 L 580 187 L 580 187 L 580 214" fill="none" stroke="#5A4A43" stroke-width="1.4" /><path d="M 576 206 L 580 214 L 584 206" fill="none" stroke="#5A4A43" stroke-width="1.4" stroke-linecap="round" /><rect x="556" y="155" width="48" height="12" rx="2" fill="#F6F0EA" /><text x="580" y="164" fill="#5A4A43" font-size="8" font-family="'JetBrains Mono', monospace" text-anchor="middle">spawn</text><path d="M 260 246 L 500 246" fill="none" stroke="#B83D2E" stroke-width="1.4" /><path d="M 492 242 L 500 246 L 492 250" fill="none" stroke="#B83D2E" stroke-width="1.4" stroke-linecap="round" /><rect x="356" y="228" width="48" height="12" rx="2" fill="#F6F0EA" /><text x="380" y="237" fill="#B83D2E" font-size="8" font-family="'JetBrains Mono', monospace" text-anchor="middle">tick</text><path d="M 660 246 L 700 246" fill="none" stroke="#B83D2E" stroke-width="1.4" /><path d="M 692 242 L 700 246 L 692 250" fill="none" stroke="#B83D2E" stroke-width="1.4" stroke-linecap="round" /><rect x="656" y="228" width="48" height="12" rx="2" fill="#F6F0EA" /><text x="680" y="237" fill="#B83D2E" font-size="8" font-family="'JetBrains Mono', monospace" text-anchor="middle">query</text><path d="M 780 278 L 780 305 L 280 305 L 280 332" fill="none" stroke="#5A4A43" stroke-width="1.4" /><path d="M 276 324 L 280 332 L 284 324" fill="none" stroke="#5A4A43" stroke-width="1.4" stroke-linecap="round" /><rect x="506" y="287" width="48" height="12" rx="2" fill="#F6F0EA" /><text x="530" y="296" fill="#5A4A43" font-size="8" font-family="'JetBrains Mono', monospace" text-anchor="middle">write</text><path d="M 780 278 L 780 305 L 480 305 L 480 332" fill="none" stroke="#5A4A43" stroke-width="1.4" /><path d="M 476 324 L 480 332 L 484 324" fill="none" stroke="#5A4A43" stroke-width="1.4" stroke-linecap="round" /><rect x="606" y="287" width="48" height="12" rx="2" fill="#F6F0EA" /><text x="630" y="296" fill="#5A4A43" font-size="8" font-family="'JetBrains Mono', monospace" text-anchor="middle">stream</text><rect x="300" y="96" width="160" height="64" rx="6" fill="#FBF7F3" stroke="#85776F" stroke-width="1" /><text x="318" y="114" fill="#85776F" font-size="7" font-family="'JetBrains Mono', monospace" letter-spacing="0.15em">EXTERNAL</text><text x="380" y="134" fill="#191514" font-size="12" font-family="Charter, Georgia, serif" font-weight="600" text-anchor="middle">Input Router</text><text x="380" y="150" fill="#5A4A43" font-size="9" font-family="'JetBrains Mono', monospace" text-anchor="middle">events</text><rect x="500" y="96" width="160" height="64" rx="6" fill="#FBF7F3" stroke="#85776F" stroke-width="1" /><text x="518" y="114" fill="#85776F" font-size="7" font-family="'JetBrains Mono', monospace" letter-spacing="0.15em">EXTERNAL</text><text x="580" y="134" fill="#191514" font-size="12" font-family="Charter, Georgia, serif" font-weight="600" text-anchor="middle">Scene Loader</text><text x="580" y="150" fill="#5A4A43" font-size="9" font-family="'JetBrains Mono', monospace" text-anchor="middle">prefabs · assets</text><rect x="100" y="214" width="160" height="64" rx="6" fill="#FBF7F3" stroke="#191514" stroke-width="1" /><text x="118" y="232" fill="#85776F" font-size="7" font-family="'JetBrains Mono', monospace" letter-spacing="0.15em">SERVICE</text><text x="180" y="252" fill="#191514" font-size="12" font-family="Charter, Georgia, serif" font-weight="600" text-anchor="middle">Frame Scheduler</text><text x="180" y="268" fill="#5A4A43" font-size="9" font-family="'JetBrains Mono', monospace" text-anchor="middle">fixed tick</text><rect x="300" y="214" width="160" height="64" rx="6" fill="#FBF7F3" stroke="#191514" stroke-width="1" /><text x="318" y="232" fill="#85776F" font-size="7" font-family="'JetBrains Mono', monospace" letter-spacing="0.15em">SERVICE</text><text x="380" y="252" fill="#191514" font-size="12" font-family="Charter, Georgia, serif" font-weight="600" text-anchor="middle">Model Runtime</text><text x="380" y="268" fill="#5A4A43" font-size="9" font-family="'JetBrains Mono', monospace" text-anchor="middle">execution core</text><rect x="500" y="214" width="160" height="64" rx="6" fill="#F7E6E1" stroke="#B83D2E" stroke-width="1" /><text x="518" y="232" fill="#B83D2E" font-size="7" font-family="'JetBrains Mono', monospace" letter-spacing="0.15em">SERVICE</text><text x="580" y="252" fill="#191514" font-size="12" font-family="Charter, Georgia, serif" font-weight="600" text-anchor="middle">ECS World</text><text x="580" y="268" fill="#5A4A43" font-size="9" font-family="'JetBrains Mono', monospace" text-anchor="middle">entity orchestration</text><rect x="700" y="214" width="160" height="64" rx="6" fill="#FBF7F3" stroke="#191514" stroke-width="1" /><text x="718" y="232" fill="#85776F" font-size="7" font-family="'JetBrains Mono', monospace" letter-spacing="0.15em">SERVICE</text><text x="780" y="252" fill="#191514" font-size="12" font-family="Charter, Georgia, serif" font-weight="600" text-anchor="middle">System Pipeline</text><text x="780" y="268" fill="#5A4A43" font-size="9" font-family="'JetBrains Mono', monospace" text-anchor="middle">execution band</text><rect x="200" y="332" width="160" height="64" rx="6" fill="#FBF7F3" stroke="#5A4A43" stroke-width="1" /><text x="218" y="350" fill="#85776F" font-size="7" font-family="'JetBrains Mono', monospace" letter-spacing="0.15em">STORE</text><text x="280" y="370" fill="#191514" font-size="12" font-family="Charter, Georgia, serif" font-weight="600" text-anchor="middle">Component Stores</text><text x="280" y="386" fill="#5A4A43" font-size="9" font-family="'JetBrains Mono', monospace" text-anchor="middle">dense arrays</text><rect x="400" y="332" width="160" height="64" rx="6" fill="#FBF7F3" stroke="#E9DED4" stroke-width="1" /><text x="418" y="350" fill="#85776F" font-size="7" font-family="'JetBrains Mono', monospace" letter-spacing="0.15em">CLOUD</text><text x="480" y="370" fill="#191514" font-size="12" font-family="Charter, Georgia, serif" font-weight="600" text-anchor="middle">Resource Cache</text><text x="480" y="386" fill="#5A4A43" font-size="9" font-family="'JetBrains Mono', monospace" text-anchor="middle">shared assets</text><rect x="600" y="332" width="160" height="64" rx="6" fill="#FBF7F3" stroke="#E9DED4" stroke-width="1" /><text x="618" y="350" fill="#85776F" font-size="7" font-family="'JetBrains Mono', monospace" letter-spacing="0.15em">CLOUD</text><text x="680" y="370" fill="#191514" font-size="12" font-family="Charter, Georgia, serif" font-weight="600" text-anchor="middle">Observability</text><text x="680" y="386" fill="#5A4A43" font-size="9" font-family="'JetBrains Mono', monospace" text-anchor="middle">logs · traces</text></svg>