<svg xmlns="http://www.w3.org/2000/svg" viewBox="0 0 960 540"><rect width="960" height="540" fill="#F6F0EA" /><text x="480" y="40" fill="#191514" font-size="24" font-family="Charter, Georgia, serif" text-anchor="middle">ECS Game Engine Runtime</text><text x="32" y="128" fill="#85776F" font-size="11" font-family="'JetBrains Mono', monospace" letter-spacing="0.08em">SURFACE LAYER</text><line x1="70" y1="178" x2="920" y2="178" stroke="#E9DED4" stroke-width="1" /><text x="32" y="246" fill="#85776F" font-size="11" font-family="'JetBrains Mono', monospace" letter-spacing="0.08em">RUNTIME LAYER</text><line x1="70" y1="296" x2="920" y2="296" stroke="#E9DED4" stroke-width="1" /><text x="32" y="364" fill="#85776F" font-size="11" font-family="'JetBrains Mono', monospace" letter-spacing="0.08em">DATA LAYER</text><line x1="70" y1="414" x2="920" y2="414" stroke="#E9DED4" stroke-width="1" /><line x1="460" y1="128" x2="200" y2="246" stroke="#5A4A43" stroke-width="1.4" /><path d="M 192 242 L 200 246 L 192 250" fill="none" stroke="#5A4A43" stroke-width="1.4" stroke-linecap="round" /><rect x="306" y="110" width="48" height="12" rx="2" fill="#F6F0EA" /><text x="330" y="119" fill="#5A4A43" font-size="8" font-family="'JetBrains Mono', monospace" text-anchor="middle">events</text><line x1="660" y1="128" x2="400" y2="246" stroke="#5A4A43" stroke-width="1.4" /><path d="M 392 242 L 400 246 L 392 250" fill="none" stroke="#5A4A43" stroke-width="1.4" stroke-linecap="round" /><rect x="506" y="110" width="48" height="12" rx="2" fill="#F6F0EA" /><text x="530" y="119" fill="#5A4A43" font-size="8" font-family="'JetBrains Mono', monospace" text-anchor="middle">spawn</text><line x1="360" y1="246" x2="400" y2="246" stroke="#B83D2E" stroke-width="1.4" /><path d="M 392 242 L 400 246 L 392 250" fill="none" stroke="#B83D2E" stroke-width="1.4" stroke-linecap="round" /><rect x="356" y="228" width="48" height="12" rx="2" fill="#F6F0EA" /><text x="380" y="237" fill="#B83D2E" font-size="8" font-family="'JetBrains Mono', monospace" text-anchor="middle">tick</text><line x1="560" y1="246" x2="600" y2="246" stroke="#B83D2E" stroke-width="1.4" /><path d="M 592 242 L 600 246 L 592 250" fill="none" stroke="#B83D2E" stroke-width="1.4" stroke-linecap="round" /><rect x="556" y="228" width="48" height="12" rx="2" fill="#F6F0EA" /><text x="580" y="237" fill="#B83D2E" font-size="8" font-family="'JetBrains Mono', monospace" text-anchor="middle">query</text><line x1="560" y1="246" x2="300" y2="364" stroke="#5A4A43" stroke-width="1.4" /><path d="M 292 360 L 300 364 L 292 368" fill="none" stroke="#5A4A43" stroke-width="1.4" stroke-linecap="round" /><rect x="406" y="228" width="48" height="12" rx="2" fill="#F6F0EA" /><text x="430" y="237" fill="#5A4A43" font-size="8" font-family="'JetBrains Mono', monospace" text-anchor="middle">attach</text><line x1="760" y1="246" x2="300" y2="364" stroke="#5A4A43" stroke-width="1.4" /><path d="M 292 360 L 300 364 L 292 368" fill="none" stroke="#5A4A43" stroke-width="1.4" stroke-linecap="round" /><rect x="506" y="228" width="48" height="12" rx="2" fill="#F6F0EA" /><text x="530" y="237" fill="#5A4A43" font-size="8" font-family="'JetBrains Mono', monospace" text-anchor="middle">read/write</text><line x1="760" y1="246" x2="500" y2="364" stroke="#5A4A43" stroke-width="1.4" /><path d="M 492 360 L 500 364 L 492 368" fill="none" stroke="#5A4A43" stroke-width="1.4" stroke-linecap="round" /><rect x="606" y="228" width="48" height="12" rx="2" fill="#F6F0EA" /><text x="630" y="237" fill="#5A4A43" font-size="8" font-family="'JetBrains Mono', monospace" text-anchor="middle">stream</text><rect x="300" y="96" width="160" height="64" rx="6" fill="#FBF7F3" stroke="#85776F" stroke-width="1" /><text x="318" y="114" fill="#85776F" font-size="7" font-family="'JetBrains Mono', monospace" letter-spacing="0.15em">EXTERNAL</text><text x="380" y="134" fill="#191514" font-size="12" font-family="Charter, Georgia, serif" font-weight="600" text-anchor="middle">Input Router</text><text x="380" y="150" fill="#5A4A43" font-size="9" font-family="'JetBrains Mono', monospace" text-anchor="middle">keyboard · gamepad</text><rect x="500" y="96" width="160" height="64" rx="6" fill="#FBF7F3" stroke="#85776F" stroke-width="1" /><text x="518" y="114" fill="#85776F" font-size="7" font-family="'JetBrains Mono', monospace" letter-spacing="0.15em">EXTERNAL</text><text x="580" y="134" fill="#191514" font-size="12" font-family="Charter, Georgia, serif" font-weight="600" text-anchor="middle">Scene Loader</text><text x="580" y="150" fill="#5A4A43" font-size="9" font-family="'JetBrains Mono', monospace" text-anchor="middle">prefabs · assets</text><rect x="200" y="214" width="160" height="64" rx="6" fill="#FBF7F3" stroke="#191514" stroke-width="1" /><text x="218" y="232" fill="#85776F" font-size="7" font-family="'JetBrains Mono', monospace" letter-spacing="0.15em">SERVICE</text><text x="280" y="252" fill="#191514" font-size="12" font-family="Charter, Georgia, serif" font-weight="600" text-anchor="middle">Frame Scheduler</text><text x="280" y="268" fill="#5A4A43" font-size="9" font-family="'JetBrains Mono', monospace" text-anchor="middle">fixed tick</text><rect x="400" y="214" width="160" height="64" rx="6" fill="#F7E6E1" stroke="#B83D2E" stroke-width="1" /><text x="418" y="232" fill="#B83D2E" font-size="7" font-family="'JetBrains Mono', monospace" letter-spacing="0.15em">SERVICE</text><text x="480" y="252" fill="#191514" font-size="12" font-family="Charter, Georgia, serif" font-weight="600" text-anchor="middle">ECS World</text><text x="480" y="268" fill="#5A4A43" font-size="9" font-family="'JetBrains Mono', monospace" text-anchor="middle">entity orchestration</text><rect x="600" y="214" width="160" height="64" rx="6" fill="#FBF7F3" stroke="#191514" stroke-width="1" /><text x="618" y="232" fill="#85776F" font-size="7" font-family="'JetBrains Mono', monospace" letter-spacing="0.15em">SERVICE</text><text x="680" y="252" fill="#191514" font-size="12" font-family="Charter, Georgia, serif" font-weight="600" text-anchor="middle">System Pipeline</text><text x="680" y="268" fill="#5A4A43" font-size="9" font-family="'JetBrains Mono', monospace" text-anchor="middle">physics · AI · render</text><rect x="300" y="332" width="160" height="64" rx="6" fill="#FBF7F3" stroke="#5A4A43" stroke-width="1" /><text x="318" y="350" fill="#85776F" font-size="7" font-family="'JetBrains Mono', monospace" letter-spacing="0.15em">STORE</text><text x="380" y="370" fill="#191514" font-size="12" font-family="Charter, Georgia, serif" font-weight="600" text-anchor="middle">Component Stores</text><text x="380" y="386" fill="#5A4A43" font-size="9" font-family="'JetBrains Mono', monospace" text-anchor="middle">dense arrays</text><rect x="500" y="332" width="160" height="64" rx="6" fill="#FBF7F3" stroke="#E9DED4" stroke-width="1" /><text x="518" y="350" fill="#85776F" font-size="7" font-family="'JetBrains Mono', monospace" letter-spacing="0.15em">CLOUD</text><text x="580" y="370" fill="#191514" font-size="12" font-family="Charter, Georgia, serif" font-weight="600" text-anchor="middle">Resource Cache</text><text x="580" y="386" fill="#5A4A43" font-size="9" font-family="'JetBrains Mono', monospace" text-anchor="middle">meshes · textures</text></svg>