<svg xmlns="http://www.w3.org/2000/svg" viewBox="0 0 960 540"><rect width="960" height="540" fill="#F6F0EA" /><text x="480" y="40" fill="#191514" font-size="24" font-family="Charter, Georgia, serif" text-anchor="middle">Folio Diagram Pipeline</text><line x1="220" y1="252" x2="260" y2="252" stroke="#B83D2E" stroke-width="1.4" /><path d="M 252 248 L 260 252 L 252 256" fill="none" stroke="#B83D2E" stroke-width="1.4" stroke-linecap="round" /><rect x="216" y="234" width="48" height="12" rx="2" fill="#F6F0EA" /><text x="240" y="243" fill="#B83D2E" font-size="8" font-family="'JetBrains Mono', monospace" text-anchor="middle">render</text><line x1="420" y1="252" x2="460" y2="252" stroke="#5A4A43" stroke-width="1.4" /><path d="M 452 248 L 460 252 L 452 256" fill="none" stroke="#5A4A43" stroke-width="1.4" stroke-linecap="round" /><rect x="416" y="234" width="48" height="12" rx="2" fill="#F6F0EA" /><text x="440" y="243" fill="#5A4A43" font-size="8" font-family="'JetBrains Mono', monospace" text-anchor="middle">rsvg</text><line x1="420" y1="252" x2="660" y2="252" stroke="#5A4A43" stroke-width="1.4" /><path d="M 652 248 L 660 252 L 652 256" fill="none" stroke="#5A4A43" stroke-width="1.4" stroke-linecap="round" /><rect x="516" y="234" width="48" height="12" rx="2" fill="#F6F0EA" /><text x="540" y="243" fill="#5A4A43" font-size="8" font-family="'JetBrains Mono', monospace" text-anchor="middle">weasy</text><rect x="60" y="220" width="160" height="64" rx="6" fill="#FBF7F3" stroke="#85776F" stroke-width="1" /><text x="78" y="238" fill="#85776F" font-size="7" font-family="'JetBrains Mono', monospace" letter-spacing="0.15em">EXTERNAL</text><text x="140" y="258" fill="#191514" font-size="12" font-family="Charter, Georgia, serif" font-weight="600" text-anchor="middle">JSON Spec</text><rect x="260" y="220" width="160" height="64" rx="6" fill="#F7E6E1" stroke="#B83D2E" stroke-width="1" /><text x="278" y="238" fill="#B83D2E" font-size="7" font-family="'JetBrains Mono', monospace" letter-spacing="0.15em">SERVICE</text><text x="340" y="258" fill="#191514" font-size="12" font-family="Charter, Georgia, serif" font-weight="600" text-anchor="middle">SVG Renderer</text><text x="340" y="274" fill="#5A4A43" font-size="9" font-family="'JetBrains Mono', monospace" text-anchor="middle">single source</text><rect x="460" y="220" width="160" height="64" rx="6" fill="#FBF7F3" stroke="#E9DED4" stroke-width="1" /><text x="478" y="238" fill="#85776F" font-size="7" font-family="'JetBrains Mono', monospace" letter-spacing="0.15em">CLOUD</text><text x="540" y="258" fill="#191514" font-size="12" font-family="Charter, Georgia, serif" font-weight="600" text-anchor="middle">PNG Export</text><rect x="660" y="220" width="160" height="64" rx="6" fill="#FBF7F3" stroke="#5A4A43" stroke-width="1" /><text x="678" y="238" fill="#85776F" font-size="7" font-family="'JetBrains Mono', monospace" letter-spacing="0.15em">STORE</text><text x="740" y="258" fill="#191514" font-size="12" font-family="Charter, Georgia, serif" font-weight="600" text-anchor="middle">PDF Export</text></svg>