<svg xmlns="http://www.w3.org/2000/svg" viewBox="0 0 960 540"><rect width="960" height="540" fill="#F6F0EA" /><text x="480" y="40" fill="#191514" font-size="24" font-family="Charter, Georgia, serif" text-anchor="middle">Data Platform</text><text x="32" y="128" fill="#85776F" font-size="11" font-family="'JetBrains Mono', monospace" letter-spacing="0.08em">SURFACE LAYER</text><line x1="70" y1="178" x2="920" y2="178" stroke="#E9DED4" stroke-width="1" /><text x="32" y="246" fill="#85776F" font-size="11" font-family="'JetBrains Mono', monospace" letter-spacing="0.08em">RUNTIME LAYER</text><line x1="70" y1="296" x2="920" y2="296" stroke="#E9DED4" stroke-width="1" /><text x="32" y="364" fill="#85776F" font-size="11" font-family="'JetBrains Mono', monospace" letter-spacing="0.08em">DATA LAYER</text><line x1="70" y1="414" x2="920" y2="414" stroke="#E9DED4" stroke-width="1" /><path d="M 280 332 L 280 305 L 480 305 L 480 278" fill="none" stroke="#B83D2E" stroke-width="1.4" /><path d="M 476 286 L 480 278 L 484 286" fill="none" stroke="#B83D2E" stroke-width="1.4" stroke-linecap="round" /><rect x="356" y="287" width="48" height="12" rx="2" fill="#F6F0EA" /><text x="380" y="296" fill="#B83D2E" font-size="8" font-family="'JetBrains Mono', monospace" text-anchor="middle">stream</text><path d="M 480 278 L 480 305 L 480 305 L 480 332" fill="none" stroke="#B83D2E" stroke-width="1.4" /><path d="M 476 324 L 480 332 L 484 324" fill="none" stroke="#B83D2E" stroke-width="1.4" stroke-linecap="round" /><rect x="456" y="273" width="48" height="12" rx="2" fill="#F6F0EA" /><text x="480" y="282" fill="#B83D2E" font-size="8" font-family="'JetBrains Mono', monospace" text-anchor="middle">load</text><path d="M 500 128 L 460 128" fill="none" stroke="#5A4A43" stroke-width="1.4" /><path d="M 468 124 L 460 128 L 468 132" fill="none" stroke="#5A4A43" stroke-width="1.4" stroke-linecap="round" /><rect x="456" y="110" width="48" height="12" rx="2" fill="#F6F0EA" /><text x="480" y="119" fill="#5A4A43" font-size="8" font-family="'JetBrains Mono', monospace" text-anchor="middle">query</text><path d="M 380 160 L 380 246 L 480 246 L 480 332" fill="none" stroke="#5A4A43" stroke-width="1.4" /><path d="M 476 324 L 480 332 L 484 324" fill="none" stroke="#5A4A43" stroke-width="1.4" stroke-linecap="round" /><rect x="406" y="228" width="48" height="12" rx="2" fill="#F6F0EA" /><text x="430" y="237" fill="#5A4A43" font-size="8" font-family="'JetBrains Mono', monospace" text-anchor="middle">serve</text><rect x="400" y="214" width="160" height="64" rx="6" fill="#F7E6E1" stroke="#B83D2E" stroke-width="1" /><text x="418" y="232" fill="#B83D2E" font-size="7" font-family="'JetBrains Mono', monospace" letter-spacing="0.15em">SERVICE</text><text x="480" y="252" fill="#191514" font-size="12" font-family="Charter, Georgia, serif" font-weight="600" text-anchor="middle">Stream Processor</text><text x="480" y="268" fill="#5A4A43" font-size="9" font-family="'JetBrains Mono', monospace" text-anchor="middle">transform stage</text><rect x="200" y="332" width="160" height="64" rx="6" fill="#FBF7F3" stroke="#E9DED4" stroke-width="1" /><text x="218" y="350" fill="#85776F" font-size="7" font-family="'JetBrains Mono', monospace" letter-spacing="0.15em">CLOUD</text><text x="280" y="370" fill="#191514" font-size="12" font-family="Charter, Georgia, serif" font-weight="600" text-anchor="middle">Kafka Bus</text><text x="280" y="386" fill="#5A4A43" font-size="9" font-family="'JetBrains Mono', monospace" text-anchor="middle">event stream</text><rect x="400" y="332" width="160" height="64" rx="6" fill="#FBF7F3" stroke="#5A4A43" stroke-width="1" /><text x="418" y="350" fill="#85776F" font-size="7" font-family="'JetBrains Mono', monospace" letter-spacing="0.15em">STORE</text><text x="480" y="370" fill="#191514" font-size="12" font-family="Charter, Georgia, serif" font-weight="600" text-anchor="middle">Warehouse</text><text x="480" y="386" fill="#5A4A43" font-size="9" font-family="'JetBrains Mono', monospace" text-anchor="middle">analytics state</text><rect x="300" y="96" width="160" height="64" rx="6" fill="#FBF7F3" stroke="#191514" stroke-width="1" /><text x="318" y="114" fill="#85776F" font-size="7" font-family="'JetBrains Mono', monospace" letter-spacing="0.15em">SERVICE</text><text x="380" y="134" fill="#191514" font-size="12" font-family="Charter, Georgia, serif" font-weight="600" text-anchor="middle">Serving API</text><text x="380" y="150" fill="#5A4A43" font-size="9" font-family="'JetBrains Mono', monospace" text-anchor="middle">query access</text><rect x="500" y="96" width="160" height="64" rx="6" fill="#FBF7F3" stroke="#85776F" stroke-width="1" /><text x="518" y="114" fill="#85776F" font-size="7" font-family="'JetBrains Mono', monospace" letter-spacing="0.15em">EXTERNAL</text><text x="580" y="134" fill="#191514" font-size="12" font-family="Charter, Georgia, serif" font-weight="600" text-anchor="middle">Dashboards</text><text x="580" y="150" fill="#5A4A43" font-size="9" font-family="'JetBrains Mono', monospace" text-anchor="middle">analyst queries</text><rect x="600" y="332" width="160" height="64" rx="6" fill="#FBF7F3" stroke="#E9DED4" stroke-width="1" /><text x="618" y="350" fill="#85776F" font-size="7" font-family="'JetBrains Mono', monospace" letter-spacing="0.15em">CLOUD</text><text x="680" y="370" fill="#191514" font-size="12" font-family="Charter, Georgia, serif" font-weight="600" text-anchor="middle">Observability</text><text x="680" y="386" fill="#5A4A43" font-size="9" font-family="'JetBrains Mono', monospace" text-anchor="middle">logs · traces</text></svg>