<svg xmlns="http://www.w3.org/2000/svg" viewBox="0 0 960 540"><rect width="960" height="540" fill="#F6F0EA" /><text x="480" y="40" fill="#191514" font-size="24" font-family="Charter, Georgia, serif" text-anchor="middle">Data Platform</text><text x="32" y="151" fill="#85776F" font-size="11" font-family="'JetBrains Mono', monospace" letter-spacing="0.08em">SURFACE LAYER</text><line x1="70" y1="201" x2="920" y2="201" stroke="#E9DED4" stroke-width="1" /><text x="32" y="269" fill="#85776F" font-size="11" font-family="'JetBrains Mono', monospace" letter-spacing="0.08em">RUNTIME LAYER</text><line x1="70" y1="319" x2="920" y2="319" stroke="#E9DED4" stroke-width="1" /><text x="32" y="387" fill="#85776F" font-size="11" font-family="'JetBrains Mono', monospace" letter-spacing="0.08em">DATA LAYER</text><line x1="70" y1="437" x2="920" y2="437" stroke="#E9DED4" stroke-width="1" /><rect class="arch-group" x="242" y="213" width="396" height="224" rx="10" fill="#FBF7F3" fill-opacity="0.28" stroke="#E9DED4" stroke-width="1" stroke-dasharray="5 4" /><text x="256" y="229" fill="#85776F" font-size="8" font-family="'JetBrains Mono', monospace" letter-spacing="0.12em">DATA PIPELINE</text><path class="arch-edge arch-edge--primary arch-edge--focus" d="M 340 355 L 340 333 L 440 333 L 440 301" fill="none" stroke="#B83D2E" stroke-width="1.8" /><path d="M 436 309 L 440 301 L 444 309" fill="none" stroke="#B83D2E" stroke-width="1.8" stroke-linecap="round" /><rect class="arch-edge-label-bg arch-edge-label-bg--primary" x="363" y="315" width="54" height="12" rx="2" fill="#F6F0EA" fill-opacity="1.0" /><text class="arch-edge-label arch-edge-label--primary" x="390" y="324" fill="#B83D2E" font-size="8" font-family="'JetBrains Mono', monospace" text-anchor="middle">stream</text><path class="arch-edge arch-edge--primary arch-edge--focus" d="M 440 301 L 440 323 L 540 323 L 540 355" fill="none" stroke="#B83D2E" stroke-width="1.8" /><path d="M 536 347 L 540 355 L 544 347" fill="none" stroke="#B83D2E" stroke-width="1.8" stroke-linecap="round" /><rect class="arch-edge-label-bg arch-edge-label-bg--primary" x="469" y="305" width="42" height="12" rx="2" fill="#F6F0EA" fill-opacity="1.0" /><text class="arch-edge-label arch-edge-label--primary" x="490" y="314" fill="#B83D2E" font-size="8" font-family="'JetBrains Mono', monospace" text-anchor="middle">load</text><path class="arch-edge arch-edge--secondary" d="M 660 151 L 620 151" fill="none" stroke="#85776F" stroke-width="1.0" /><path d="M 628 147 L 620 151 L 628 155" fill="none" stroke="#85776F" stroke-width="1.0" stroke-linecap="round" /><rect class="arch-edge-label-bg arch-edge-label-bg--background" x="617" y="133" width="47" height="12" rx="2" fill="#F6F0EA" fill-opacity="0.72" /><text class="arch-edge-label arch-edge-label--background" x="640" y="142" fill="#85776F" font-size="7" font-family="'JetBrains Mono', monospace" text-anchor="middle">query</text><path class="arch-edge arch-edge--secondary" d="M 540 183 L 540 240 L 540 240 L 540 355" fill="none" stroke="#5A4A43" stroke-width="1.2" /><path d="M 536 347 L 540 355 L 544 347" fill="none" stroke="#5A4A43" stroke-width="1.2" stroke-linecap="round" /><rect class="arch-edge-label-bg arch-edge-label-bg--secondary" x="517" y="279" width="47" height="12" rx="2" fill="#F6F0EA" fill-opacity="0.9" /><text class="arch-edge-label arch-edge-label--secondary" x="540" y="288" fill="#5A4A43" font-size="8" font-family="'JetBrains Mono', monospace" text-anchor="middle">serve</text><rect x="360" y="237" width="160" height="64" rx="6" fill="#F7E6E1" stroke="#B83D2E" stroke-width="1" /><text x="378" y="255" fill="#B83D2E" font-size="7" font-family="'JetBrains Mono', monospace" letter-spacing="0.15em">SERVICE</text><text x="440" y="275" fill="#191514" font-size="12" font-family="Charter, Georgia, serif" font-weight="600" text-anchor="middle">Stream Processor</text><text x="440" y="291" fill="#5A4A43" font-size="9" font-family="'JetBrains Mono', monospace" text-anchor="middle">transform stage</text><rect x="260" y="355" width="160" height="64" rx="6" fill="#FBF7F3" stroke="#E9DED4" stroke-width="1" /><text x="278" y="373" fill="#85776F" font-size="7" font-family="'JetBrains Mono', monospace" letter-spacing="0.15em">CLOUD</text><text x="340" y="393" fill="#191514" font-size="12" font-family="Charter, Georgia, serif" font-weight="600" text-anchor="middle">Kafka Bus</text><text x="340" y="409" fill="#5A4A43" font-size="9" font-family="'JetBrains Mono', monospace" text-anchor="middle">event stream</text><rect x="460" y="355" width="160" height="64" rx="6" fill="#FBF7F3" stroke="#5A4A43" stroke-width="1" /><text x="478" y="373" fill="#85776F" font-size="7" font-family="'JetBrains Mono', monospace" letter-spacing="0.15em">STORE</text><text x="540" y="393" fill="#191514" font-size="12" font-family="Charter, Georgia, serif" font-weight="600" text-anchor="middle">Warehouse</text><text x="540" y="409" fill="#5A4A43" font-size="9" font-family="'JetBrains Mono', monospace" text-anchor="middle">analytics state</text><rect x="460" y="119" width="160" height="64" rx="6" fill="#FBF7F3" stroke="#191514" stroke-width="1" /><text x="478" y="137" fill="#85776F" font-size="7" font-family="'JetBrains Mono', monospace" letter-spacing="0.15em">SERVICE</text><text x="540" y="157" fill="#191514" font-size="12" font-family="Charter, Georgia, serif" font-weight="600" text-anchor="middle">Serving API</text><text x="540" y="173" fill="#5A4A43" font-size="9" font-family="'JetBrains Mono', monospace" text-anchor="middle">query access</text><rect x="660" y="119" width="160" height="64" rx="6" fill="#FBF7F3" stroke="#85776F" stroke-width="1" /><text x="678" y="137" fill="#85776F" font-size="7" font-family="'JetBrains Mono', monospace" letter-spacing="0.15em">EXTERNAL</text><text x="740" y="157" fill="#191514" font-size="12" font-family="Charter, Georgia, serif" font-weight="600" text-anchor="middle">Dashboards</text><text x="740" y="173" fill="#5A4A43" font-size="9" font-family="'JetBrains Mono', monospace" text-anchor="middle">analyst queries</text><rect x="660" y="355" width="160" height="64" rx="6" fill="#FBF7F3" stroke="#E9DED4" stroke-width="1" /><text x="678" y="373" fill="#85776F" font-size="7" font-family="'JetBrains Mono', monospace" letter-spacing="0.15em">CLOUD</text><text x="740" y="393" fill="#191514" font-size="12" font-family="Charter, Georgia, serif" font-weight="600" text-anchor="middle">Observability</text><text x="740" y="409" fill="#5A4A43" font-size="9" font-family="'JetBrains Mono', monospace" text-anchor="middle">logs · traces</text><rect class="arch-legend" x="302" y="482" width="355" height="42" rx="8" fill="#FBF7F3" stroke="#E9DED4" stroke-width="1" /><text x="316" y="498" fill="#85776F" font-size="8" font-family="'JetBrains Mono', monospace" letter-spacing="0.12em">LEGEND</text><line x1="386" y1="507" x2="406" y2="507" stroke="#5A4A43" stroke-width="1.6" /><text x="414" y="510" fill="#191514" font-size="9" font-family="'JetBrains Mono', monospace">Stream</text><line x1="484" y1="507" x2="504" y2="507" stroke="#5A4A43" stroke-width="1.6" /><text x="512" y="510" fill="#191514" font-size="9" font-family="'JetBrains Mono', monospace">Write</text><line x1="575" y1="507" x2="595" y2="507" stroke="#85776F" stroke-width="1.6" /><text x="603" y="510" fill="#191514" font-size="9" font-family="'JetBrains Mono', monospace">Read</text></svg>