<svg xmlns="http://www.w3.org/2000/svg" width="512" height="608" viewBox="0 0 512 608" role="img" aria-labelledby="folio-f3a67f856711--drawing-title folio-f3a67f856711--drawing-description" lang="en" data-folio-namespace="folio-f3a67f856711" data-folio-variant="plain"><title id="folio-f3a67f856711--drawing-title" data-folio-id="drawing-title">Drawing Review</title><desc id="folio-f3a67f856711--drawing-description" data-folio-id="drawing-description">Flowchart: Drawing Review</desc><rect data-folio-role="canvas" x="0" y="0" width="512" height="608" fill="#F6F0EA" /><text x="256" y="40" fill="#191514" font-size="24" font-family="Charter, Georgia, serif" text-anchor="middle">Drawing Review</text><path id="folio-f3a67f856711--flow:0:start-&gt;review" data-folio-id="flow:0:start-&gt;review" class="flow-edge flow-edge--sequence-flow" d="M 256 152 L 256 212" fill="none" stroke="#5A4A43" stroke-width="1.4" stroke-linecap="round" stroke-linejoin="round" /><path d="M 252 204 L 256 212 L 260 204" fill="none" stroke="#5A4A43" stroke-width="1.4" stroke-linecap="round" /><path id="folio-f3a67f856711--flow:1:review-&gt;publish" data-folio-id="flow:1:review-&gt;publish" class="flow-edge flow-edge--conditional-flow" d="M 248 300 L 248 306 Q 248 312 240 312 L 160 312 Q 152 312 152 320 L 152 340" fill="none" stroke="#191514" stroke-width="1.4" stroke-linecap="round" stroke-linejoin="round" /><path d="M 148 332 L 152 340 L 156 332" fill="none" stroke="#191514" stroke-width="1.4" stroke-linecap="round" /><text x="200" y="332" fill="#74665F" font-size="8" font-family="'JetBrains Mono', monospace" text-anchor="middle" class="flow-edge-label">YES</text><path id="folio-f3a67f856711--flow:2:review-&gt;repair" data-folio-id="flow:2:review-&gt;repair" class="flow-edge flow-edge--conditional-flow" d="M 264 300 L 264 320 Q 264 328 272 328 L 352 328 Q 360 328 360 334 L 360 340" fill="none" stroke="#191514" stroke-width="1.4" stroke-linecap="round" stroke-linejoin="round" /><path d="M 356 332 L 360 340 L 364 332" fill="none" stroke="#191514" stroke-width="1.4" stroke-linecap="round" /><text x="312" y="316" fill="#74665F" font-size="8" font-family="'JetBrains Mono', monospace" text-anchor="middle" class="flow-edge-label">NO</text><path id="folio-f3a67f856711--flow:3:publish-&gt;end" data-folio-id="flow:3:publish-&gt;end" class="flow-edge flow-edge--sequence-flow" d="M 152 404 L 152 424 Q 152 432 160 432 L 240 432 Q 248 432 248 440 L 248 464" fill="none" stroke="#5A4A43" stroke-width="1.4" stroke-linecap="round" stroke-linejoin="round" /><path d="M 244 456 L 248 464 L 252 456" fill="none" stroke="#5A4A43" stroke-width="1.4" stroke-linecap="round" /><path id="folio-f3a67f856711--flow:4:repair-&gt;end" data-folio-id="flow:4:repair-&gt;end" class="flow-edge flow-edge--exception-flow" d="M 360 404 L 360 424 Q 360 432 352 432 L 272 432 Q 264 432 264 440 L 264 464" fill="none" stroke="#74665F" stroke-width="1.4" stroke-dasharray="6 4" stroke-linecap="round" stroke-linejoin="round" /><path d="M 260 456 L 264 464 L 268 456" fill="none" stroke="#74665F" stroke-width="1.4" stroke-linecap="round" /><text x="312" y="420" fill="#74665F" font-size="8" font-family="'JetBrains Mono', monospace" text-anchor="middle" class="flow-edge-label">RESOLVED</text><g id="folio-f3a67f856711--start" data-folio-id="start" data-reading-order="0"><rect x="176" y="88" width="160" height="64" rx="32" fill="#FBF7F3" stroke="#191514" stroke-width="1" /><text x="256" y="124" fill="#191514" font-size="12" font-family="Charter, Georgia, serif" text-anchor="middle" font-weight="500">Drawing compiled</text></g><g id="folio-f3a67f856711--review" data-folio-id="review" data-reading-order="1"><path d="M 256 212 L 352 256 L 256 300 L 160 256 Z" fill="#F7E6E1" stroke="#B83D2E" stroke-width="1" /><text x="256" y="260" fill="#191514" font-size="12" font-family="Charter, Georgia, serif" text-anchor="middle" font-weight="500">Validation passes?</text></g><g id="folio-f3a67f856711--publish" data-folio-id="publish" data-reading-order="2"><rect x="72" y="340" width="160" height="64" rx="5" fill="#FBF7F3" stroke="#191514" stroke-width="1" /><text x="152" y="368" fill="#191514" font-size="12" font-family="Charter, Georgia, serif" text-anchor="middle" font-weight="500">Publish</text><text x="152" y="384" fill="#191514" font-size="12" font-family="Charter, Georgia, serif" text-anchor="middle" font-weight="500">artifacts</text></g><g id="folio-f3a67f856711--repair" data-folio-id="repair" data-reading-order="3"><rect x="280" y="340" width="160" height="64" rx="5" fill="#FBF7F3" stroke="#191514" stroke-width="1" /><text x="360" y="368" fill="#191514" font-size="12" font-family="Charter, Georgia, serif" text-anchor="middle" font-weight="500">Repair drawing</text><text x="360" y="384" fill="#191514" font-size="12" font-family="Charter, Georgia, serif" text-anchor="middle" font-weight="500">plan</text></g><g id="folio-f3a67f856711--end" data-folio-id="end" data-reading-order="4"><rect x="176" y="464" width="160" height="64" rx="32" fill="#FBF7F3" stroke="#191514" stroke-width="1" /><text x="256" y="500" fill="#191514" font-size="12" font-family="Charter, Georgia, serif" text-anchor="middle" font-weight="500">Review complete</text></g></svg>