<svg xmlns="http://www.w3.org/2000/svg" viewBox="0 0 960 640"><rect width="960" height="640" fill="#F6F0EA" /><text x="480" y="40" fill="#191514" font-size="24" font-family="Charter, Georgia, serif" text-anchor="middle">ECS World Model</text><rect x="80" y="100" width="220" height="134" rx="6" fill="#FBF7F3" stroke="#B83D2E" stroke-width="1" /><line x1="80" y1="134" x2="300" y2="134" stroke="#E9DED4" stroke-width="1" /><line x1="80" y1="188" x2="300" y2="188" stroke="#E9DED4" stroke-width="1" /><text x="190" y="122" fill="#191514" font-size="13" font-family="Charter, Georgia, serif" font-weight="600" text-anchor="middle">World</text><text x="92" y="152" fill="#5A4A43" font-size="10" font-family="'JetBrains Mono', monospace">entities: EntityPool</text><text x="92" y="170" fill="#5A4A43" font-size="10" font-family="'JetBrains Mono', monospace">stores: ComponentRegistry</text><text x="92" y="206" fill="#191514" font-size="10" font-family="'JetBrains Mono', monospace">spawn() -&gt; Entity</text><text x="92" y="224" fill="#191514" font-size="10" font-family="'JetBrains Mono', monospace">query(mask) -&gt; View</text><rect x="360" y="100" width="220" height="116" rx="6" fill="#FBF7F3" stroke="#191514" stroke-width="1" /><line x1="360" y1="134" x2="580" y2="134" stroke="#E9DED4" stroke-width="1" /><line x1="360" y1="188" x2="580" y2="188" stroke="#E9DED4" stroke-width="1" /><text x="470" y="122" fill="#191514" font-size="13" font-family="Charter, Georgia, serif" font-weight="600" text-anchor="middle">Entity</text><text x="372" y="152" fill="#5A4A43" font-size="10" font-family="'JetBrains Mono', monospace">id: int</text><text x="372" y="170" fill="#5A4A43" font-size="10" font-family="'JetBrains Mono', monospace">generation: int</text><text x="372" y="206" fill="#191514" font-size="10" font-family="'JetBrains Mono', monospace">is_alive() -&gt; bool</text><rect x="640" y="100" width="220" height="134" rx="6" fill="#FBF7F3" stroke="#191514" stroke-width="1" /><line x1="640" y1="134" x2="860" y2="134" stroke="#E9DED4" stroke-width="1" /><line x1="640" y1="188" x2="860" y2="188" stroke="#E9DED4" stroke-width="1" /><text x="750" y="122" fill="#191514" font-size="13" font-family="Charter, Georgia, serif" font-weight="600" text-anchor="middle">ComponentStore&lt;T&gt;</text><text x="652" y="152" fill="#5A4A43" font-size="10" font-family="'JetBrains Mono', monospace">dense: list[T]</text><text x="652" y="170" fill="#5A4A43" font-size="10" font-family="'JetBrains Mono', monospace">sparse: list[int]</text><text x="652" y="206" fill="#191514" font-size="10" font-family="'JetBrains Mono', monospace">insert(entity, value) -&gt; None</text><text x="652" y="224" fill="#191514" font-size="10" font-family="'JetBrains Mono', monospace">get(entity) -&gt; T</text><rect x="80" y="320" width="220" height="98" rx="6" fill="#FBF7F3" stroke="#191514" stroke-width="1" /><line x1="80" y1="354" x2="300" y2="354" stroke="#E9DED4" stroke-width="1" /><line x1="80" y1="390" x2="300" y2="390" stroke="#E9DED4" stroke-width="1" /><text x="190" y="342" fill="#191514" font-size="13" font-family="Charter, Georgia, serif" font-weight="600" text-anchor="middle">MovementSystem</text><text x="92" y="372" fill="#5A4A43" font-size="10" font-family="'JetBrains Mono', monospace">required: Velocity|Transform</text><text x="92" y="408" fill="#191514" font-size="10" font-family="'JetBrains Mono', monospace">update(dt) -&gt; None</text></svg>