<svg xmlns="http://www.w3.org/2000/svg" viewBox="0 0 960 640"><rect width="960" height="640" fill="#F6F0EA" /><text x="480" y="40" fill="#191514" font-size="24" font-family="Charter, Georgia, serif" text-anchor="middle">Agent Session Model</text><polygon class="uml-diamond" points="194,272 189,280 194,288 199,280" fill="#5A4A43" stroke="#5A4A43" stroke-width="1.2" /><path class="uml-edge" d="M 194 288 L 194 354 L 194 354 L 194 420" fill="none" stroke="#5A4A43" stroke-width="1.2" /><text x="204" y="414" fill="#85776F" font-size="9" font-family="'JetBrains Mono', monospace">*</text><polygon class="uml-triangle" points="430,283 418,277 418,289" fill="#F6F0EA" stroke="#5A4A43" stroke-width="1.2" /><path class="uml-edge" d="M 340 459 L 379 459 L 379 283 L 418 283" fill="none" stroke="#5A4A43" stroke-width="1.2" /><path class="uml-edge" d="M 340 171 L 356 171 L 356 98 L 664 98 L 664 165 L 680 165" fill="none" stroke="#5A4A43" stroke-width="1.2" /><path class="uml-edge-head" d="M 672 161 L 680 165 L 672 169" fill="none" stroke="#5A4A43" stroke-width="1.4" stroke-linecap="round" /><text x="510" y="80" fill="#85776F" font-size="9" font-family="'JetBrains Mono', monospace" text-anchor="middle">retrieves</text><polygon class="uml-diamond" points="340,496 348,491 356,496 348,501" fill="#F6F0EA" stroke="#5A4A43" stroke-width="1.2" /><path class="uml-edge" d="M 356 496 L 393 496 L 393 459 L 430 459" fill="none" stroke="#5A4A43" stroke-width="1.2" /><text x="440" y="453" fill="#85776F" font-size="9" font-family="'JetBrains Mono', monospace">*</text><rect x="120" y="120" width="220" height="152" rx="6" fill="#FBF7F3" stroke="#B83D2E" stroke-width="1" /><line x1="120" y1="154" x2="340" y2="154" stroke="#E9DED4" stroke-width="1" /><line x1="120" y1="226" x2="340" y2="226" stroke="#E9DED4" stroke-width="1" /><text x="230" y="142" fill="#191514" font-size="13" font-family="Charter, Georgia, serif" font-weight="600" text-anchor="middle">AgentSession</text><text x="132" y="172" fill="#5A4A43" font-size="10" font-family="'JetBrains Mono', monospace">id: UUID</text><text x="132" y="190" fill="#5A4A43" font-size="10" font-family="'JetBrains Mono', monospace">status: SessionStatus</text><text x="132" y="208" fill="#5A4A43" font-size="10" font-family="'JetBrains Mono', monospace">active_step: int</text><text x="132" y="244" fill="#191514" font-size="10" font-family="'JetBrains Mono', monospace">advance() -&gt; None</text><text x="132" y="262" fill="#191514" font-size="10" font-family="'JetBrains Mono', monospace">append(result) -&gt; None</text><rect x="430" y="250" width="220" height="98" rx="6" fill="#FBF7F3" stroke="#191514" stroke-width="1" /><line x1="430" y1="284" x2="650" y2="284" stroke="#E9DED4" stroke-width="1" /><line x1="430" y1="320" x2="650" y2="320" stroke="#E9DED4" stroke-width="1" /><text x="540" y="272" fill="#191514" font-size="13" font-family="Charter, Georgia, serif" font-weight="600" text-anchor="middle">RunnableStep</text><text x="442" y="302" fill="#5A4A43" font-size="10" font-family="'JetBrains Mono', monospace">kind: str</text><text x="442" y="338" fill="#191514" font-size="10" font-family="'JetBrains Mono', monospace">run(ctx) -&gt; StepResult</text><rect x="680" y="120" width="220" height="134" rx="6" fill="#FBF7F3" stroke="#191514" stroke-width="1" /><line x1="680" y1="154" x2="900" y2="154" stroke="#E9DED4" stroke-width="1" /><line x1="680" y1="208" x2="900" y2="208" stroke="#E9DED4" stroke-width="1" /><text x="790" y="142" fill="#191514" font-size="13" font-family="Charter, Georgia, serif" font-weight="600" text-anchor="middle">MemoryStore</text><text x="692" y="172" fill="#5A4A43" font-size="10" font-family="'JetBrains Mono', monospace">namespace: str</text><text x="692" y="190" fill="#5A4A43" font-size="10" font-family="'JetBrains Mono', monospace">last_sync: datetime</text><text x="692" y="226" fill="#191514" font-size="10" font-family="'JetBrains Mono', monospace">retrieve(query) -&gt; list[Record]</text><text x="692" y="244" fill="#191514" font-size="10" font-family="'JetBrains Mono', monospace">persist(batch) -&gt; None</text><rect x="120" y="420" width="220" height="116" rx="6" fill="#FBF7F3" stroke="#191514" stroke-width="1" /><line x1="120" y1="454" x2="340" y2="454" stroke="#E9DED4" stroke-width="1" /><line x1="120" y1="508" x2="340" y2="508" stroke="#E9DED4" stroke-width="1" /><text x="230" y="442" fill="#191514" font-size="13" font-family="Charter, Georgia, serif" font-weight="600" text-anchor="middle">PlanStep</text><text x="132" y="472" fill="#5A4A43" font-size="10" font-family="'JetBrains Mono', monospace">prompt: PromptBlock</text><text x="132" y="490" fill="#5A4A43" font-size="10" font-family="'JetBrains Mono', monospace">tools: list[ToolCall]</text><text x="132" y="526" fill="#191514" font-size="10" font-family="'JetBrains Mono', monospace">resolve(state) -&gt; ToolCall</text><rect x="430" y="420" width="220" height="116" rx="6" fill="#FBF7F3" stroke="#191514" stroke-width="1" /><line x1="430" y1="454" x2="650" y2="454" stroke="#E9DED4" stroke-width="1" /><line x1="430" y1="508" x2="650" y2="508" stroke="#E9DED4" stroke-width="1" /><text x="540" y="442" fill="#191514" font-size="13" font-family="Charter, Georgia, serif" font-weight="600" text-anchor="middle">ToolCall</text><text x="442" y="472" fill="#5A4A43" font-size="10" font-family="'JetBrains Mono', monospace">tool_name: str</text><text x="442" y="490" fill="#5A4A43" font-size="10" font-family="'JetBrains Mono', monospace">arguments: dict[str, Any]</text><text x="442" y="526" fill="#191514" font-size="10" font-family="'JetBrains Mono', monospace">execute() -&gt; ToolResult</text><rect x="680" y="420" width="220" height="134" rx="6" fill="#FBF7F3" stroke="#191514" stroke-width="1" /><line x1="680" y1="454" x2="900" y2="454" stroke="#E9DED4" stroke-width="1" /><line x1="680" y1="544" x2="900" y2="544" stroke="#E9DED4" stroke-width="1" /><text x="790" y="442" fill="#191514" font-size="13" font-family="Charter, Georgia, serif" font-weight="600" text-anchor="middle">SessionStatus</text><text x="692" y="472" fill="#5A4A43" font-size="10" font-family="'JetBrains Mono', monospace">QUEUED</text><text x="692" y="490" fill="#5A4A43" font-size="10" font-family="'JetBrains Mono', monospace">RUNNING</text><text x="692" y="508" fill="#5A4A43" font-size="10" font-family="'JetBrains Mono', monospace">WAITING_TOOL</text><text x="692" y="526" fill="#5A4A43" font-size="10" font-family="'JetBrains Mono', monospace">COMPLETED</text></svg>