<svg xmlns="http://www.w3.org/2000/svg" viewBox="0 0 960 540"><rect width="960" height="540" fill="#F6F0EA" /><text x="480" y="40" fill="#191514" font-size="24" font-family="Charter, Georgia, serif" text-anchor="middle">Workflow Engine</text><text x="32" y="151" fill="#85776F" font-size="11" font-family="'JetBrains Mono', monospace" letter-spacing="0.08em">SURFACE LAYER</text><line x1="70" y1="201" x2="920" y2="201" stroke="#E9DED4" stroke-width="1" /><text x="32" y="269" fill="#85776F" font-size="11" font-family="'JetBrains Mono', monospace" letter-spacing="0.08em">RUNTIME LAYER</text><line x1="70" y1="319" x2="920" y2="319" stroke="#E9DED4" stroke-width="1" /><text x="32" y="387" fill="#85776F" font-size="11" font-family="'JetBrains Mono', monospace" letter-spacing="0.08em">DATA LAYER</text><line x1="70" y1="437" x2="920" y2="437" stroke="#E9DED4" stroke-width="1" /><rect class="arch-group" x="342" y="95" width="396" height="224" rx="10" fill="#FBF7F3" fill-opacity="0.28" stroke="#E9DED4" stroke-width="1" stroke-dasharray="5 4" /><text x="356" y="111" fill="#85776F" font-size="8" font-family="'JetBrains Mono', monospace" letter-spacing="0.12em">WORKFLOW CORE</text><path class="arch-edge arch-edge--primary arch-edge--focus" d="M 540 183 L 540 205 L 440 205 L 440 237" fill="none" stroke="#B83D2E" stroke-width="1.8" /><path d="M 436 229 L 440 237 L 444 229" fill="none" stroke="#B83D2E" stroke-width="1.8" stroke-linecap="round" /><rect class="arch-edge-label-bg arch-edge-label-bg--primary" x="467" y="187" width="47" height="12" rx="2" fill="#F6F0EA" fill-opacity="1.0" /><text class="arch-edge-label arch-edge-label--primary" x="490" y="196" fill="#B83D2E" font-size="8" font-family="'JetBrains Mono', monospace" text-anchor="middle">start</text><path class="arch-edge arch-edge--primary arch-edge--focus" d="M 520 269 L 560 269" fill="none" stroke="#B83D2E" stroke-width="1.8" /><path d="M 552 265 L 560 269 L 552 273" fill="none" stroke="#B83D2E" stroke-width="1.8" stroke-linecap="round" /><rect class="arch-edge-label-bg arch-edge-label-bg--primary" x="517" y="251" width="47" height="12" rx="2" fill="#F6F0EA" fill-opacity="1.0" /><text class="arch-edge-label arch-edge-label--primary" x="540" y="260" fill="#B83D2E" font-size="8" font-family="'JetBrains Mono', monospace" text-anchor="middle">steps</text><path class="arch-edge arch-edge--secondary" d="M 440 301 L 440 323 L 440 323 L 440 355" fill="none" stroke="#5A4A43" stroke-width="1.2" /><path d="M 436 347 L 440 355 L 444 347" fill="none" stroke="#5A4A43" stroke-width="1.2" stroke-linecap="round" /><rect class="arch-edge-label-bg arch-edge-label-bg--secondary" x="417" y="321" width="47" height="12" rx="2" fill="#F6F0EA" fill-opacity="0.9" /><text class="arch-edge-label arch-edge-label--secondary" x="440" y="330" fill="#5A4A43" font-size="8" font-family="'JetBrains Mono', monospace" text-anchor="middle">state</text><path class="arch-edge arch-edge--secondary" d="M 440 301 L 440 323 L 640 323 L 640 355" fill="none" stroke="#85776F" stroke-width="1.0" /><path d="M 636 347 L 640 355 L 644 347" fill="none" stroke="#85776F" stroke-width="1.0" stroke-linecap="round" /><rect class="arch-edge-label-bg arch-edge-label-bg--background" x="513" y="305" width="54" height="12" rx="2" fill="#F6F0EA" fill-opacity="0.72" /><text class="arch-edge-label arch-edge-label--background" x="540" y="314" fill="#85776F" font-size="7" font-family="'JetBrains Mono', monospace" text-anchor="middle">events</text><rect x="460" y="119" width="160" height="64" rx="6" fill="#FBF7F3" stroke="#85776F" stroke-width="1" /><text x="478" y="137" fill="#85776F" font-size="7" font-family="'JetBrains Mono', monospace" letter-spacing="0.15em">EXTERNAL</text><text x="540" y="157" fill="#191514" font-size="12" font-family="Charter, Georgia, serif" font-weight="600" text-anchor="middle">API Gateway</text><text x="540" y="173" fill="#5A4A43" font-size="9" font-family="'JetBrains Mono', monospace" text-anchor="middle">request ingress</text><rect x="360" y="237" width="160" height="64" rx="6" fill="#F7E6E1" stroke="#B83D2E" stroke-width="1" /><text x="378" y="255" fill="#B83D2E" font-size="7" font-family="'JetBrains Mono', monospace" letter-spacing="0.15em">SERVICE</text><text x="440" y="275" fill="#191514" font-size="12" font-family="Charter, Georgia, serif" font-weight="600" text-anchor="middle">Workflow Orchestrator</text><text x="440" y="291" fill="#5A4A43" font-size="9" font-family="'JetBrains Mono', monospace" text-anchor="middle">step coordination</text><rect x="560" y="237" width="160" height="64" rx="6" fill="#FBF7F3" stroke="#191514" stroke-width="1" /><text x="578" y="255" fill="#85776F" font-size="7" font-family="'JetBrains Mono', monospace" letter-spacing="0.15em">SERVICE</text><text x="640" y="275" fill="#191514" font-size="12" font-family="Charter, Georgia, serif" font-weight="600" text-anchor="middle">Worker Pool</text><text x="640" y="291" fill="#5A4A43" font-size="9" font-family="'JetBrains Mono', monospace" text-anchor="middle">step execution</text><rect x="360" y="355" width="160" height="64" rx="6" fill="#FBF7F3" stroke="#5A4A43" stroke-width="1" /><text x="378" y="373" fill="#85776F" font-size="7" font-family="'JetBrains Mono', monospace" letter-spacing="0.15em">STORE</text><text x="440" y="393" fill="#191514" font-size="12" font-family="Charter, Georgia, serif" font-weight="600" text-anchor="middle">State Store</text><text x="440" y="409" fill="#5A4A43" font-size="9" font-family="'JetBrains Mono', monospace" text-anchor="middle">workflow state</text><rect x="560" y="355" width="160" height="64" rx="6" fill="#FBF7F3" stroke="#E9DED4" stroke-width="1" /><text x="578" y="373" fill="#85776F" font-size="7" font-family="'JetBrains Mono', monospace" letter-spacing="0.15em">CLOUD</text><text x="640" y="393" fill="#191514" font-size="12" font-family="Charter, Georgia, serif" font-weight="600" text-anchor="middle">Event Bus</text><text x="640" y="409" fill="#5A4A43" font-size="9" font-family="'JetBrains Mono', monospace" text-anchor="middle">retries · continuations</text><rect class="arch-legend" x="295" y="482" width="369" height="42" rx="8" fill="#FBF7F3" stroke="#E9DED4" stroke-width="1" /><text x="309" y="498" fill="#85776F" font-size="8" font-family="'JetBrains Mono', monospace" letter-spacing="0.12em">LEGEND</text><line x1="379" y1="507" x2="399" y2="507" stroke="#B83D2E" stroke-width="1.6" /><text x="407" y="510" fill="#191514" font-size="9" font-family="'JetBrains Mono', monospace">Control</text><line x1="484" y1="507" x2="504" y2="507" stroke="#5A4A43" stroke-width="1.6" /><text x="512" y="510" fill="#191514" font-size="9" font-family="'JetBrains Mono', monospace">Write</text><line x1="575" y1="507" x2="595" y2="507" stroke="#85776F" stroke-width="1.6" /><text x="603" y="510" fill="#191514" font-size="9" font-family="'JetBrains Mono', monospace">Event</text></svg>