<svg xmlns="http://www.w3.org/2000/svg" viewBox="0 0 960 540"><rect width="960" height="540" fill="#F6F0EA" /><text x="480" y="40" fill="#191514" font-size="24" font-family="Charter, Georgia, serif" text-anchor="middle">Workflow Engine</text><text x="32" y="148" fill="#85776F" font-size="11" font-family="'JetBrains Mono', monospace" letter-spacing="0.08em">SURFACE LAYER</text><line x1="120" y1="216" x2="904" y2="216" stroke="#E9DED4" stroke-width="1" /><text x="32" y="284" fill="#85776F" font-size="11" font-family="'JetBrains Mono', monospace" letter-spacing="0.08em">RUNTIME LAYER</text><line x1="120" y1="350" x2="904" y2="350" stroke="#E9DED4" stroke-width="1" /><text x="32" y="416" fill="#85776F" font-size="11" font-family="'JetBrains Mono', monospace" letter-spacing="0.08em">DATA LAYER</text><rect class="arch-group" x="262" y="88" width="436" height="250" rx="10" fill="#FBF7F3" fill-opacity="0.28" stroke="#E9DED4" stroke-width="1" stroke-dasharray="5 4" /><text x="276" y="104" fill="#85776F" font-size="8" font-family="'JetBrains Mono', monospace" letter-spacing="0.12em">WORKFLOW CORE</text><path class="arch-edge arch-edge--primary arch-edge--focus" d="M 480 184 L 480 216 L 368 216 L 368 248" fill="none" stroke="#B83D2E" stroke-width="1.8" /><path d="M 364 240 L 368 248 L 372 240" fill="none" stroke="#B83D2E" stroke-width="1.8" stroke-linecap="round" /><path class="arch-edge arch-edge--primary arch-edge--focus" d="M 456 284 L 504 284" fill="none" stroke="#B83D2E" stroke-width="1.8" /><path d="M 496 280 L 504 284 L 496 288" fill="none" stroke="#B83D2E" stroke-width="1.8" stroke-linecap="round" /><path class="arch-edge arch-edge--secondary" d="M 368 320 L 368 352 L 592 352 L 592 380" fill="none" stroke="#5A4A43" stroke-width="1.2" /><path d="M 588 372 L 592 380 L 596 372" fill="none" stroke="#5A4A43" stroke-width="1.2" stroke-linecap="round" /><path class="arch-edge arch-edge--secondary" d="M 368 320 L 368 380" fill="none" stroke="#85776F" stroke-width="1.0" /><path d="M 364 372 L 368 380 L 372 372" fill="none" stroke="#85776F" stroke-width="1.0" stroke-linecap="round" /><rect x="392" y="112" width="176" height="72" rx="5" fill="#FBF7F3" stroke="#85776F" stroke-width="1" /><text x="410" y="130" fill="#85776F" font-size="7" font-family="'JetBrains Mono', monospace" letter-spacing="0.15em">EXTERNAL</text><text x="480" y="150" fill="#191514" font-size="12" font-family="Charter, Georgia, serif" font-weight="500" text-anchor="middle">API Gateway</text><text x="480" y="166" fill="#5A4A43" font-size="9" font-family="'JetBrains Mono', monospace" text-anchor="middle">request ingress</text><rect x="280" y="248" width="176" height="72" rx="5" fill="#F7E6E1" stroke="#B83D2E" stroke-width="1" /><text x="298" y="266" fill="#B83D2E" font-size="7" font-family="'JetBrains Mono', monospace" letter-spacing="0.15em">SERVICE</text><text x="368" y="286" fill="#191514" font-size="12" font-family="Charter, Georgia, serif" font-weight="500" text-anchor="middle">Workflow Orchestrator</text><text x="368" y="302" fill="#5A4A43" font-size="9" font-family="'JetBrains Mono', monospace" text-anchor="middle">step coordination</text><rect x="504" y="248" width="176" height="72" rx="5" fill="#FBF7F3" stroke="#191514" stroke-width="1" /><text x="522" y="266" fill="#85776F" font-size="7" font-family="'JetBrains Mono', monospace" letter-spacing="0.15em">SERVICE</text><text x="592" y="286" fill="#191514" font-size="12" font-family="Charter, Georgia, serif" font-weight="500" text-anchor="middle">Worker Pool</text><text x="592" y="302" fill="#5A4A43" font-size="9" font-family="'JetBrains Mono', monospace" text-anchor="middle">step execution</text><rect x="504" y="380" width="176" height="72" rx="5" fill="#FBF7F3" stroke="#5A4A43" stroke-width="1" /><text x="522" y="398" fill="#85776F" font-size="7" font-family="'JetBrains Mono', monospace" letter-spacing="0.15em">STORE</text><text x="592" y="418" fill="#191514" font-size="12" font-family="Charter, Georgia, serif" font-weight="500" text-anchor="middle">State Store</text><text x="592" y="434" fill="#5A4A43" font-size="9" font-family="'JetBrains Mono', monospace" text-anchor="middle">workflow state</text><rect x="280" y="380" width="176" height="72" rx="5" fill="#FBF7F3" stroke="#E9DED4" stroke-width="1" /><text x="298" y="398" fill="#85776F" font-size="7" font-family="'JetBrains Mono', monospace" letter-spacing="0.15em">CLOUD</text><text x="368" y="418" fill="#191514" font-size="12" font-family="Charter, Georgia, serif" font-weight="500" text-anchor="middle">Event Bus</text><text x="368" y="434" fill="#5A4A43" font-size="9" font-family="'JetBrains Mono', monospace" text-anchor="middle">retries · continuations</text><rect class="arch-legend" x="295" y="482" width="369" height="42" rx="4" fill="#F6F0EA" stroke="#E9DED4" stroke-width="1" /><text x="309" y="498" fill="#85776F" font-size="8" font-family="'JetBrains Mono', monospace" letter-spacing="0.12em">LEGEND</text><line x1="379" y1="507" x2="399" y2="507" stroke="#B83D2E" stroke-width="1.4" stroke-linecap="round" /><path d="M 391 503 L 399 507 L 391 511" fill="none" stroke="#B83D2E" stroke-width="1.4" stroke-linecap="round" /><text x="407" y="510" fill="#191514" font-size="9" font-family="'JetBrains Mono', monospace">Control</text><line x1="484" y1="507" x2="504" y2="507" stroke="#5A4A43" stroke-width="1.4" stroke-linecap="round" /><path d="M 496 503 L 504 507 L 496 511" fill="none" stroke="#5A4A43" stroke-width="1.4" stroke-linecap="round" /><text x="512" y="510" fill="#191514" font-size="9" font-family="'JetBrains Mono', monospace">Write</text><line x1="575" y1="507" x2="595" y2="507" stroke="#85776F" stroke-width="1.4" stroke-linecap="round" /><path d="M 587 503 L 595 507 L 587 511" fill="none" stroke="#85776F" stroke-width="1.4" stroke-linecap="round" /><text x="603" y="510" fill="#191514" font-size="9" font-family="'JetBrains Mono', monospace">Event</text></svg>