<svg xmlns="http://www.w3.org/2000/svg" viewBox="0 0 960 540"><rect width="960" height="540" fill="#F6F0EA" /><text x="480" y="40" fill="#191514" font-size="24" font-family="Charter, Georgia, serif" text-anchor="middle">Workflow Engine</text><text x="32" y="128" fill="#85776F" font-size="11" font-family="'JetBrains Mono', monospace" letter-spacing="0.08em">SURFACE LAYER</text><line x1="70" y1="178" x2="920" y2="178" stroke="#E9DED4" stroke-width="1" /><text x="32" y="246" fill="#85776F" font-size="11" font-family="'JetBrains Mono', monospace" letter-spacing="0.08em">RUNTIME LAYER</text><line x1="70" y1="296" x2="920" y2="296" stroke="#E9DED4" stroke-width="1" /><text x="32" y="364" fill="#85776F" font-size="11" font-family="'JetBrains Mono', monospace" letter-spacing="0.08em">DATA LAYER</text><line x1="70" y1="414" x2="920" y2="414" stroke="#E9DED4" stroke-width="1" /><path d="M 480 160 L 480 187 L 380 187 L 380 214" fill="none" stroke="#B83D2E" stroke-width="1.4" /><path d="M 376 206 L 380 214 L 384 206" fill="none" stroke="#B83D2E" stroke-width="1.4" stroke-linecap="round" /><rect x="406" y="169" width="48" height="12" rx="2" fill="#F6F0EA" /><text x="430" y="178" fill="#B83D2E" font-size="8" font-family="'JetBrains Mono', monospace" text-anchor="middle">start</text><path d="M 460 246 L 500 246" fill="none" stroke="#B83D2E" stroke-width="1.4" /><path d="M 492 242 L 500 246 L 492 250" fill="none" stroke="#B83D2E" stroke-width="1.4" stroke-linecap="round" /><rect x="456" y="228" width="48" height="12" rx="2" fill="#F6F0EA" /><text x="480" y="237" fill="#B83D2E" font-size="8" font-family="'JetBrains Mono', monospace" text-anchor="middle">steps</text><path d="M 380 278 L 380 305 L 380 305 L 380 332" fill="none" stroke="#5A4A43" stroke-width="1.4" /><path d="M 376 324 L 380 332 L 384 324" fill="none" stroke="#5A4A43" stroke-width="1.4" stroke-linecap="round" /><rect x="356" y="273" width="48" height="12" rx="2" fill="#F6F0EA" /><text x="380" y="282" fill="#5A4A43" font-size="8" font-family="'JetBrains Mono', monospace" text-anchor="middle">state</text><path d="M 380 278 L 380 305 L 580 305 L 580 332" fill="none" stroke="#5A4A43" stroke-width="1.4" /><path d="M 576 324 L 580 332 L 584 324" fill="none" stroke="#5A4A43" stroke-width="1.4" stroke-linecap="round" /><rect x="456" y="287" width="48" height="12" rx="2" fill="#F6F0EA" /><text x="480" y="296" fill="#5A4A43" font-size="8" font-family="'JetBrains Mono', monospace" text-anchor="middle">events</text><rect x="400" y="96" width="160" height="64" rx="6" fill="#FBF7F3" stroke="#85776F" stroke-width="1" /><text x="418" y="114" fill="#85776F" font-size="7" font-family="'JetBrains Mono', monospace" letter-spacing="0.15em">EXTERNAL</text><text x="480" y="134" fill="#191514" font-size="12" font-family="Charter, Georgia, serif" font-weight="600" text-anchor="middle">API Gateway</text><text x="480" y="150" fill="#5A4A43" font-size="9" font-family="'JetBrains Mono', monospace" text-anchor="middle">request ingress</text><rect x="300" y="214" width="160" height="64" rx="6" fill="#F7E6E1" stroke="#B83D2E" stroke-width="1" /><text x="318" y="232" fill="#B83D2E" font-size="7" font-family="'JetBrains Mono', monospace" letter-spacing="0.15em">SERVICE</text><text x="380" y="252" fill="#191514" font-size="12" font-family="Charter, Georgia, serif" font-weight="600" text-anchor="middle">Workflow Orchestrator</text><text x="380" y="268" fill="#5A4A43" font-size="9" font-family="'JetBrains Mono', monospace" text-anchor="middle">step coordination</text><rect x="500" y="214" width="160" height="64" rx="6" fill="#FBF7F3" stroke="#191514" stroke-width="1" /><text x="518" y="232" fill="#85776F" font-size="7" font-family="'JetBrains Mono', monospace" letter-spacing="0.15em">SERVICE</text><text x="580" y="252" fill="#191514" font-size="12" font-family="Charter, Georgia, serif" font-weight="600" text-anchor="middle">Worker Pool</text><text x="580" y="268" fill="#5A4A43" font-size="9" font-family="'JetBrains Mono', monospace" text-anchor="middle">step execution</text><rect x="300" y="332" width="160" height="64" rx="6" fill="#FBF7F3" stroke="#5A4A43" stroke-width="1" /><text x="318" y="350" fill="#85776F" font-size="7" font-family="'JetBrains Mono', monospace" letter-spacing="0.15em">STORE</text><text x="380" y="370" fill="#191514" font-size="12" font-family="Charter, Georgia, serif" font-weight="600" text-anchor="middle">State Store</text><text x="380" y="386" fill="#5A4A43" font-size="9" font-family="'JetBrains Mono', monospace" text-anchor="middle">workflow state</text><rect x="500" y="332" width="160" height="64" rx="6" fill="#FBF7F3" stroke="#E9DED4" stroke-width="1" /><text x="518" y="350" fill="#85776F" font-size="7" font-family="'JetBrains Mono', monospace" letter-spacing="0.15em">CLOUD</text><text x="580" y="370" fill="#191514" font-size="12" font-family="Charter, Georgia, serif" font-weight="600" text-anchor="middle">Event Bus</text><text x="580" y="386" fill="#5A4A43" font-size="9" font-family="'JetBrains Mono', monospace" text-anchor="middle">retries · continuations</text></svg>