<svg xmlns="http://www.w3.org/2000/svg" width="100%" style="display:block;width:100%;height:auto" viewBox="36 0 721 509" role="img" aria-labelledby="folio-e5f80091239f--drawing-title folio-e5f80091239f--drawing-description" lang="en" data-folio-namespace="folio-e5f80091239f" data-folio-variant="plain"><title id="folio-e5f80091239f--drawing-title" data-folio-id="drawing-title">Grammar Distribution</title><desc id="folio-e5f80091239f--drawing-description" data-folio-id="drawing-description">Donut Grammar Distribution. Structural: 6; Positional: 6; Notation: 3; Data visualization: 7</desc><rect data-folio-role="canvas" x="36" y="0" width="721" height="509" fill="#F6F0EA" /><text x="480" y="40" fill="#191514" font-size="24" font-family="Charter, Georgia, serif" text-anchor="middle">Grammar Distribution</text><path id="folio-e5f80091239f--segment:structural" data-folio-id="segment:structural" role="listitem" data-reading-order="0" d="M 250.000 106.000 A 190 190 0 0 1 438.066 323.040 L 356.901 311.370 A 108 108 0 0 0 250.000 188.000 Z" fill="#5A4A43" stroke="#F6F0EA" stroke-width="1" /><rect id="folio-e5f80091239f--legend-mark:structural" data-folio-id="legend-mark:structural" x="596" y="176" width="12" height="12" rx="2" fill="#5A4A43" stroke="none" stroke-width="0" /><text x="624" y="188" fill="#191514" font-size="11" font-family="Charter, Georgia, serif">Structural</text><text x="624" y="206" fill="#74665F" font-size="9" font-family="'JetBrains Mono', monospace">6 types · 27.3%</text><path id="folio-e5f80091239f--segment:positional" data-folio-id="segment:positional" role="listitem" data-reading-order="1" d="M 438.066 323.040 A 190 190 0 0 1 196.471 478.304 L 219.573 399.625 A 108 108 0 0 0 356.901 311.370 Z" fill="#74665F" stroke="#F6F0EA" stroke-width="1" /><rect id="folio-e5f80091239f--legend-mark:positional" data-folio-id="legend-mark:positional" x="596" y="248" width="12" height="12" rx="2" fill="#74665F" stroke="none" stroke-width="0" /><text x="624" y="260" fill="#191514" font-size="11" font-family="Charter, Georgia, serif">Positional</text><text x="624" y="278" fill="#74665F" font-size="9" font-family="'JetBrains Mono', monospace">6 types · 27.3%</text><path id="folio-e5f80091239f--segment:notation" data-folio-id="segment:notation" role="listitem" data-reading-order="2" d="M 196.471 478.304 A 190 190 0 0 1 77.170 374.929 L 151.760 340.865 A 108 108 0 0 0 219.573 399.625 Z" fill="#B9ACA3" stroke="#F6F0EA" stroke-width="1" /><rect id="folio-e5f80091239f--legend-mark:notation" data-folio-id="legend-mark:notation" x="596" y="320" width="12" height="12" rx="2" fill="#B9ACA3" stroke="none" stroke-width="0" /><text x="624" y="332" fill="#191514" font-size="11" font-family="Charter, Georgia, serif">Notation</text><text x="624" y="350" fill="#74665F" font-size="9" font-family="'JetBrains Mono', monospace">3 types · 13.6%</text><path id="folio-e5f80091239f--segment:data-viz" data-folio-id="segment:data-viz" role="listitem" data-reading-order="3" d="M 77.170 374.929 A 190 190 0 0 1 250.000 106.000 L 250.000 188.000 A 108 108 0 0 0 151.760 340.865 Z" fill="#B83D2E" stroke="#F6F0EA" stroke-width="1" /><rect id="folio-e5f80091239f--legend-mark:data-viz" data-folio-id="legend-mark:data-viz" x="596" y="392" width="12" height="12" rx="2" fill="#B83D2E" stroke="none" stroke-width="0" /><text x="624" y="404" fill="#191514" font-size="11" font-family="Charter, Georgia, serif">Data visualization</text><text x="624" y="422" fill="#74665F" font-size="9" font-family="'JetBrains Mono', monospace">7 types · 31.8%</text><text x="250" y="294" fill="#B83D2E" font-size="22" font-family="Charter, Georgia, serif" text-anchor="middle" font-weight="500">22 types</text><text x="250" y="322" fill="#74665F" font-size="9" font-family="'JetBrains Mono', monospace" text-anchor="middle" letter-spacing="0.16em">TOTAL</text></svg>