<svg xmlns="http://www.w3.org/2000/svg" width="100%" style="display:block;width:100%;height:auto" viewBox="40 0 880 448" role="img" aria-labelledby="folio-e7a753076622--drawing-title folio-e7a753076622--drawing-description" lang="en" data-folio-namespace="folio-e7a753076622" data-folio-variant="plain"><title id="folio-e7a753076622--drawing-title" data-folio-id="drawing-title">Drawing Grammar Hierarchy</title><desc id="folio-e7a753076622--drawing-description" data-folio-id="drawing-description">Tree Drawing Grammar Hierarchy with root core.</desc><rect data-folio-role="canvas" x="40" y="0" width="880" height="448" fill="#F6F0EA" /><text x="480" y="40" fill="#191514" font-size="24" font-family="Charter, Georgia, serif" text-anchor="middle">Drawing Grammar Hierarchy</text><path id="folio-e7a753076622--core-structural" data-folio-id="core-structural" class="tree-edge tree-edge--normal" d="M 472 216 L 472 224 Q 472 232 464 232 L 392 232 Q 384 232 384 240 L 384 264" fill="none" stroke="#5A4A43" stroke-width="1.4" stroke-linecap="round" stroke-linejoin="round" /><path d="M 380 256 L 384 264 L 388 256" fill="none" stroke="#5A4A43" stroke-width="1.4" stroke-linecap="round" /><path id="folio-e7a753076622--core-data" data-folio-id="core-data" class="tree-edge tree-edge--normal" d="M 488 216 L 488 240 Q 488 248 496 248 L 568 248 Q 576 248 576 256 L 576 264" fill="none" stroke="#5A4A43" stroke-width="1.4" stroke-linecap="round" stroke-linejoin="round" /><path d="M 572 256 L 576 264 L 580 256" fill="none" stroke="#5A4A43" stroke-width="1.4" stroke-linecap="round" /><path id="folio-e7a753076622--structural-state" data-folio-id="structural-state" class="tree-edge tree-edge--normal" d="M 368 328 L 368 334 Q 368 340 360 340 L 136 340 Q 128 340 128 348 L 128 376" fill="none" stroke="#5A4A43" stroke-width="1.4" stroke-linecap="round" stroke-linejoin="round" /><path d="M 124 368 L 128 376 L 132 368" fill="none" stroke="#5A4A43" stroke-width="1.4" stroke-linecap="round" /><path id="folio-e7a753076622--structural-swimlane" data-folio-id="structural-swimlane" class="tree-edge tree-edge--normal" d="M 384 328 L 384 344 Q 384 352 376 352 L 312 352 Q 304 352 304 360 L 304 376" fill="none" stroke="#5A4A43" stroke-width="1.4" stroke-linecap="round" stroke-linejoin="round" /><path d="M 300 368 L 304 376 L 308 368" fill="none" stroke="#5A4A43" stroke-width="1.4" stroke-linecap="round" /><path id="folio-e7a753076622--structural-tree" data-folio-id="structural-tree" class="tree-edge tree-edge--normal" d="M 400 328 L 400 356 Q 400 364 408 364 L 472 364 Q 480 364 480 370 L 480 376" fill="none" stroke="#5A4A43" stroke-width="1.4" stroke-linecap="round" stroke-linejoin="round" /><path d="M 476 368 L 480 376 L 484 368" fill="none" stroke="#5A4A43" stroke-width="1.4" stroke-linecap="round" /><path id="folio-e7a753076622--data-scale" data-folio-id="data-scale" class="tree-edge tree-edge--normal" d="M 568 328 L 568 336 Q 568 344 576 344 L 648 344 Q 656 344 656 352 L 656 376" fill="none" stroke="#5A4A43" stroke-width="1.4" stroke-linecap="round" stroke-linejoin="round" /><path d="M 652 368 L 656 376 L 660 368" fill="none" stroke="#5A4A43" stroke-width="1.4" stroke-linecap="round" /><path id="folio-e7a753076622--data-series" data-folio-id="data-series" class="tree-edge tree-edge--normal" d="M 584 328 L 584 352 Q 584 360 592 360 L 824 360 Q 832 360 832 368 L 832 376" fill="none" stroke="#5A4A43" stroke-width="1.4" stroke-linecap="round" stroke-linejoin="round" /><path d="M 828 368 L 832 376 L 836 368" fill="none" stroke="#5A4A43" stroke-width="1.4" stroke-linecap="round" /><g id="folio-e7a753076622--core" data-folio-id="core" data-reading-order="0"><rect x="408" y="152" width="144" height="64" rx="6" fill="#F6F0EA" stroke="#9C8470" stroke-width="1.2" /><text x="480" y="188" fill="#191514" font-size="12" font-family="Charter, Georgia, serif" text-anchor="middle" font-weight="500">Drawing Core</text></g><g id="folio-e7a753076622--structural" data-folio-id="structural" data-reading-order="1"><rect x="312" y="264" width="144" height="64" rx="6" fill="#F7E6E1" stroke="#B83D2E" stroke-width="1.2" /><text x="384" y="300" fill="#191514" font-size="12" font-family="Charter, Georgia, serif" text-anchor="middle" font-weight="500">Structural</text></g><g id="folio-e7a753076622--data-viz" data-folio-id="data-viz" data-reading-order="2"><rect x="504" y="264" width="144" height="64" rx="6" fill="#F6F0EA" stroke="#9C8470" stroke-width="1.2" /><text x="576" y="300" fill="#191514" font-size="12" font-family="Charter, Georgia, serif" text-anchor="middle" font-weight="500">Data Viz</text></g><g id="folio-e7a753076622--state" data-folio-id="state" data-reading-order="3"><rect x="64" y="376" width="128" height="48" rx="6" fill="#FBF7F3" stroke="#191514" stroke-width="1.2" /><text x="128" y="404" fill="#191514" font-size="12" font-family="Charter, Georgia, serif" text-anchor="middle" font-weight="500">State</text></g><g id="folio-e7a753076622--swimlane" data-folio-id="swimlane" data-reading-order="4"><rect x="240" y="376" width="128" height="48" rx="6" fill="#FBF7F3" stroke="#191514" stroke-width="1.2" /><text x="304" y="404" fill="#191514" font-size="12" font-family="Charter, Georgia, serif" text-anchor="middle" font-weight="500">Swimlane</text></g><g id="folio-e7a753076622--tree" data-folio-id="tree" data-reading-order="5"><rect x="416" y="376" width="128" height="48" rx="6" fill="#FBF7F3" stroke="#191514" stroke-width="1.2" /><text x="480" y="404" fill="#191514" font-size="12" font-family="Charter, Georgia, serif" text-anchor="middle" font-weight="500">Tree</text></g><g id="folio-e7a753076622--scale" data-folio-id="scale" data-reading-order="6"><rect x="592" y="376" width="128" height="48" rx="6" fill="#F6F0EA" stroke="#9C8470" stroke-width="1.2" /><text x="656" y="404" fill="#191514" font-size="12" font-family="Charter, Georgia, serif" text-anchor="middle" font-weight="500">Scale</text></g><g id="folio-e7a753076622--series" data-folio-id="series" data-reading-order="7"><rect x="768" y="376" width="128" height="48" rx="6" fill="#F6F0EA" stroke="#9C8470" stroke-width="1.2" /><text x="832" y="404" fill="#191514" font-size="12" font-family="Charter, Georgia, serif" text-anchor="middle" font-weight="500">Series</text></g></svg>